<?xml version="1.0" encoding="utf-8" standalone="no"?>
<!DOCTYPE svg PUBLIC "-//W3C//DTD SVG 1.1//EN"
  "http://www.w3.org/Graphics/SVG/1.1/DTD/svg11.dtd">
<svg xmlns:xlink="http://www.w3.org/1999/xlink" width="1129.633752pt" height="958.489531pt" viewBox="0 0 1129.633752 958.489531" xmlns="http://www.w3.org/2000/svg" version="1.1">
 <metadata>
  <rdf:RDF xmlns:dc="http://purl.org/dc/elements/1.1/" xmlns:cc="http://creativecommons.org/ns#" xmlns:rdf="http://www.w3.org/1999/02/22-rdf-syntax-ns#">
   <cc:Work>
    <dc:type rdf:resource="http://purl.org/dc/dcmitype/StillImage"/>
    <dc:date>2025-06-12T16:26:58.332150</dc:date>
    <dc:format>image/svg+xml</dc:format>
    <dc:creator>
     <cc:Agent>
      <dc:title>Matplotlib v3.9.2, https://matplotlib.org/</dc:title>
     </cc:Agent>
    </dc:creator>
   </cc:Work>
  </rdf:RDF>
 </metadata>
 <defs>
  <style type="text/css">*{stroke-linejoin: round; stroke-linecap: butt}</style>
 </defs>
 <g id="figure_1">
  <g id="patch_1">
   <path d="M 0 958.489531 
L 1129.633752 958.489531 
L 1129.633752 0 
L 0 0 
z
" style="fill: #ffffff"/>
  </g>
  <g id="axes_1">
   <g id="patch_2">
    <path d="M 44.555938 918.997656 
L 944.377938 918.997656 
L 944.377938 25.197656 
L 44.555938 25.197656 
z
" style="fill: #ffffff"/>
   </g>
   <g id="patch_3">
    <path d="M 199.711348 800.114557 
Q 198.691604 801.481071 197.67186 802.847585 
" clip-path="url(#p0412a58680)" style="fill: none; opacity: 0.6; stroke: #808080; stroke-width: 0.5; stroke-linecap: round"/>
   </g>
   <g id="patch_4">
    <path d="M 247.989843 695.585426 
Q 245.889979 698.232888 243.790115 700.88035 
" clip-path="url(#p0412a58680)" style="fill: none; opacity: 0.6; stroke: #808080; stroke-width: 0.5; stroke-linecap: round"/>
   </g>
   <g id="patch_5">
    <path d="M 429.204144 726.592545 
Q 426.138366 726.804144 423.072589 727.015743 
" clip-path="url(#p0412a58680)" style="fill: none; opacity: 0.6; stroke: #808080; stroke-width: 0.5; stroke-linecap: round"/>
   </g>
   <g id="patch_6">
    <path d="M 820.589321 810.802165 
Q 818.206826 810.576361 815.824331 810.350557 
" clip-path="url(#p0412a58680)" style="fill: none; opacity: 0.6; stroke: #808080; stroke-width: 0.5; stroke-linecap: round"/>
   </g>
   <g id="matplotlib.axis_1">
    <g id="xtick_1">
     <g id="line2d_1">
      <path d="M 193.044977 918.997656 
L 193.044977 25.197656 
" clip-path="url(#p0412a58680)" style="fill: none; stroke-dasharray: 0.8,1.32; stroke-dashoffset: 0; stroke: #b0b0b0; stroke-opacity: 0.7; stroke-width: 0.8"/>
     </g>
     <g id="line2d_2">
      <defs>
       <path id="m8b16ac2df0" d="M 0 0 
L 0 3.5 
" style="stroke: #000000; stroke-width: 0.8"/>
      </defs>
      <g>
       <use xlink:href="#m8b16ac2df0" x="193.044977" y="918.997656" style="stroke: #000000; stroke-width: 0.8"/>
      </g>
     </g>
     <g id="text_1">
      <!-- −2 -->
      <g transform="translate(185.673884 933.596094) scale(0.1 -0.1)">
       <defs>
        <path id="DejaVuSans-2212" d="M 678 2272 
L 4684 2272 
L 4684 1741 
L 678 1741 
L 678 2272 
z
" transform="scale(0.015625)"/>
        <path id="DejaVuSans-32" d="M 1228 531 
L 3431 531 
L 3431 0 
L 469 0 
L 469 531 
Q 828 903 1448 1529 
Q 2069 2156 2228 2338 
Q 2531 2678 2651 2914 
Q 2772 3150 2772 3378 
Q 2772 3750 2511 3984 
Q 2250 4219 1831 4219 
Q 1534 4219 1204 4116 
Q 875 4013 500 3803 
L 500 4441 
Q 881 4594 1212 4672 
Q 1544 4750 1819 4750 
Q 2544 4750 2975 4387 
Q 3406 4025 3406 3419 
Q 3406 3131 3298 2873 
Q 3191 2616 2906 2266 
Q 2828 2175 2409 1742 
Q 1991 1309 1228 531 
z
" transform="scale(0.015625)"/>
       </defs>
       <use xlink:href="#DejaVuSans-2212"/>
       <use xlink:href="#DejaVuSans-32" x="83.789062"/>
      </g>
     </g>
    </g>
    <g id="xtick_2">
     <g id="line2d_3">
      <path d="M 365.77517 918.997656 
L 365.77517 25.197656 
" clip-path="url(#p0412a58680)" style="fill: none; stroke-dasharray: 0.8,1.32; stroke-dashoffset: 0; stroke: #b0b0b0; stroke-opacity: 0.7; stroke-width: 0.8"/>
     </g>
     <g id="line2d_4">
      <g>
       <use xlink:href="#m8b16ac2df0" x="365.77517" y="918.997656" style="stroke: #000000; stroke-width: 0.8"/>
      </g>
     </g>
     <g id="text_2">
      <!-- 0 -->
      <g transform="translate(362.59392 933.596094) scale(0.1 -0.1)">
       <defs>
        <path id="DejaVuSans-30" d="M 2034 4250 
Q 1547 4250 1301 3770 
Q 1056 3291 1056 2328 
Q 1056 1369 1301 889 
Q 1547 409 2034 409 
Q 2525 409 2770 889 
Q 3016 1369 3016 2328 
Q 3016 3291 2770 3770 
Q 2525 4250 2034 4250 
z
M 2034 4750 
Q 2819 4750 3233 4129 
Q 3647 3509 3647 2328 
Q 3647 1150 3233 529 
Q 2819 -91 2034 -91 
Q 1250 -91 836 529 
Q 422 1150 422 2328 
Q 422 3509 836 4129 
Q 1250 4750 2034 4750 
z
" transform="scale(0.015625)"/>
       </defs>
       <use xlink:href="#DejaVuSans-30"/>
      </g>
     </g>
    </g>
    <g id="xtick_3">
     <g id="line2d_5">
      <path d="M 538.505363 918.997656 
L 538.505363 25.197656 
" clip-path="url(#p0412a58680)" style="fill: none; stroke-dasharray: 0.8,1.32; stroke-dashoffset: 0; stroke: #b0b0b0; stroke-opacity: 0.7; stroke-width: 0.8"/>
     </g>
     <g id="line2d_6">
      <g>
       <use xlink:href="#m8b16ac2df0" x="538.505363" y="918.997656" style="stroke: #000000; stroke-width: 0.8"/>
      </g>
     </g>
     <g id="text_3">
      <!-- 2 -->
      <g transform="translate(535.324113 933.596094) scale(0.1 -0.1)">
       <use xlink:href="#DejaVuSans-32"/>
      </g>
     </g>
    </g>
    <g id="xtick_4">
     <g id="line2d_7">
      <path d="M 711.235556 918.997656 
L 711.235556 25.197656 
" clip-path="url(#p0412a58680)" style="fill: none; stroke-dasharray: 0.8,1.32; stroke-dashoffset: 0; stroke: #b0b0b0; stroke-opacity: 0.7; stroke-width: 0.8"/>
     </g>
     <g id="line2d_8">
      <g>
       <use xlink:href="#m8b16ac2df0" x="711.235556" y="918.997656" style="stroke: #000000; stroke-width: 0.8"/>
      </g>
     </g>
     <g id="text_4">
      <!-- 4 -->
      <g transform="translate(708.054306 933.596094) scale(0.1 -0.1)">
       <defs>
        <path id="DejaVuSans-34" d="M 2419 4116 
L 825 1625 
L 2419 1625 
L 2419 4116 
z
M 2253 4666 
L 3047 4666 
L 3047 1625 
L 3713 1625 
L 3713 1100 
L 3047 1100 
L 3047 0 
L 2419 0 
L 2419 1100 
L 313 1100 
L 313 1709 
L 2253 4666 
z
" transform="scale(0.015625)"/>
       </defs>
       <use xlink:href="#DejaVuSans-34"/>
      </g>
     </g>
    </g>
    <g id="xtick_5">
     <g id="line2d_9">
      <path d="M 883.965749 918.997656 
L 883.965749 25.197656 
" clip-path="url(#p0412a58680)" style="fill: none; stroke-dasharray: 0.8,1.32; stroke-dashoffset: 0; stroke: #b0b0b0; stroke-opacity: 0.7; stroke-width: 0.8"/>
     </g>
     <g id="line2d_10">
      <g>
       <use xlink:href="#m8b16ac2df0" x="883.965749" y="918.997656" style="stroke: #000000; stroke-width: 0.8"/>
      </g>
     </g>
     <g id="text_5">
      <!-- 6 -->
      <g transform="translate(880.784499 933.596094) scale(0.1 -0.1)">
       <defs>
        <path id="DejaVuSans-36" d="M 2113 2584 
Q 1688 2584 1439 2293 
Q 1191 2003 1191 1497 
Q 1191 994 1439 701 
Q 1688 409 2113 409 
Q 2538 409 2786 701 
Q 3034 994 3034 1497 
Q 3034 2003 2786 2293 
Q 2538 2584 2113 2584 
z
M 3366 4563 
L 3366 3988 
Q 3128 4100 2886 4159 
Q 2644 4219 2406 4219 
Q 1781 4219 1451 3797 
Q 1122 3375 1075 2522 
Q 1259 2794 1537 2939 
Q 1816 3084 2150 3084 
Q 2853 3084 3261 2657 
Q 3669 2231 3669 1497 
Q 3669 778 3244 343 
Q 2819 -91 2113 -91 
Q 1303 -91 875 529 
Q 447 1150 447 2328 
Q 447 3434 972 4092 
Q 1497 4750 2381 4750 
Q 2619 4750 2861 4703 
Q 3103 4656 3366 4563 
z
" transform="scale(0.015625)"/>
       </defs>
       <use xlink:href="#DejaVuSans-36"/>
      </g>
     </g>
    </g>
    <g id="text_6">
     <!-- PC1 (44.77% varianza explicada) -->
     <g transform="translate(395.151938 948.793906) scale(0.12 -0.12)">
      <defs>
       <path id="DejaVuSans-50" d="M 1259 4147 
L 1259 2394 
L 2053 2394 
Q 2494 2394 2734 2622 
Q 2975 2850 2975 3272 
Q 2975 3691 2734 3919 
Q 2494 4147 2053 4147 
L 1259 4147 
z
M 628 4666 
L 2053 4666 
Q 2838 4666 3239 4311 
Q 3641 3956 3641 3272 
Q 3641 2581 3239 2228 
Q 2838 1875 2053 1875 
L 1259 1875 
L 1259 0 
L 628 0 
L 628 4666 
z
" transform="scale(0.015625)"/>
       <path id="DejaVuSans-43" d="M 4122 4306 
L 4122 3641 
Q 3803 3938 3442 4084 
Q 3081 4231 2675 4231 
Q 1875 4231 1450 3742 
Q 1025 3253 1025 2328 
Q 1025 1406 1450 917 
Q 1875 428 2675 428 
Q 3081 428 3442 575 
Q 3803 722 4122 1019 
L 4122 359 
Q 3791 134 3420 21 
Q 3050 -91 2638 -91 
Q 1578 -91 968 557 
Q 359 1206 359 2328 
Q 359 3453 968 4101 
Q 1578 4750 2638 4750 
Q 3056 4750 3426 4639 
Q 3797 4528 4122 4306 
z
" transform="scale(0.015625)"/>
       <path id="DejaVuSans-31" d="M 794 531 
L 1825 531 
L 1825 4091 
L 703 3866 
L 703 4441 
L 1819 4666 
L 2450 4666 
L 2450 531 
L 3481 531 
L 3481 0 
L 794 0 
L 794 531 
z
" transform="scale(0.015625)"/>
       <path id="DejaVuSans-20" transform="scale(0.015625)"/>
       <path id="DejaVuSans-28" d="M 1984 4856 
Q 1566 4138 1362 3434 
Q 1159 2731 1159 2009 
Q 1159 1288 1364 580 
Q 1569 -128 1984 -844 
L 1484 -844 
Q 1016 -109 783 600 
Q 550 1309 550 2009 
Q 550 2706 781 3412 
Q 1013 4119 1484 4856 
L 1984 4856 
z
" transform="scale(0.015625)"/>
       <path id="DejaVuSans-2e" d="M 684 794 
L 1344 794 
L 1344 0 
L 684 0 
L 684 794 
z
" transform="scale(0.015625)"/>
       <path id="DejaVuSans-37" d="M 525 4666 
L 3525 4666 
L 3525 4397 
L 1831 0 
L 1172 0 
L 2766 4134 
L 525 4134 
L 525 4666 
z
" transform="scale(0.015625)"/>
       <path id="DejaVuSans-25" d="M 4653 2053 
Q 4381 2053 4226 1822 
Q 4072 1591 4072 1178 
Q 4072 772 4226 539 
Q 4381 306 4653 306 
Q 4919 306 5073 539 
Q 5228 772 5228 1178 
Q 5228 1588 5073 1820 
Q 4919 2053 4653 2053 
z
M 4653 2450 
Q 5147 2450 5437 2106 
Q 5728 1763 5728 1178 
Q 5728 594 5436 251 
Q 5144 -91 4653 -91 
Q 4153 -91 3862 251 
Q 3572 594 3572 1178 
Q 3572 1766 3864 2108 
Q 4156 2450 4653 2450 
z
M 1428 4353 
Q 1159 4353 1004 4120 
Q 850 3888 850 3481 
Q 850 3069 1003 2837 
Q 1156 2606 1428 2606 
Q 1700 2606 1854 2837 
Q 2009 3069 2009 3481 
Q 2009 3884 1853 4118 
Q 1697 4353 1428 4353 
z
M 4250 4750 
L 4750 4750 
L 1831 -91 
L 1331 -91 
L 4250 4750 
z
M 1428 4750 
Q 1922 4750 2215 4408 
Q 2509 4066 2509 3481 
Q 2509 2891 2217 2550 
Q 1925 2209 1428 2209 
Q 931 2209 642 2551 
Q 353 2894 353 3481 
Q 353 4063 643 4406 
Q 934 4750 1428 4750 
z
" transform="scale(0.015625)"/>
       <path id="DejaVuSans-76" d="M 191 3500 
L 800 3500 
L 1894 563 
L 2988 3500 
L 3597 3500 
L 2284 0 
L 1503 0 
L 191 3500 
z
" transform="scale(0.015625)"/>
       <path id="DejaVuSans-61" d="M 2194 1759 
Q 1497 1759 1228 1600 
Q 959 1441 959 1056 
Q 959 750 1161 570 
Q 1363 391 1709 391 
Q 2188 391 2477 730 
Q 2766 1069 2766 1631 
L 2766 1759 
L 2194 1759 
z
M 3341 1997 
L 3341 0 
L 2766 0 
L 2766 531 
Q 2569 213 2275 61 
Q 1981 -91 1556 -91 
Q 1019 -91 701 211 
Q 384 513 384 1019 
Q 384 1609 779 1909 
Q 1175 2209 1959 2209 
L 2766 2209 
L 2766 2266 
Q 2766 2663 2505 2880 
Q 2244 3097 1772 3097 
Q 1472 3097 1187 3025 
Q 903 2953 641 2809 
L 641 3341 
Q 956 3463 1253 3523 
Q 1550 3584 1831 3584 
Q 2591 3584 2966 3190 
Q 3341 2797 3341 1997 
z
" transform="scale(0.015625)"/>
       <path id="DejaVuSans-72" d="M 2631 2963 
Q 2534 3019 2420 3045 
Q 2306 3072 2169 3072 
Q 1681 3072 1420 2755 
Q 1159 2438 1159 1844 
L 1159 0 
L 581 0 
L 581 3500 
L 1159 3500 
L 1159 2956 
Q 1341 3275 1631 3429 
Q 1922 3584 2338 3584 
Q 2397 3584 2469 3576 
Q 2541 3569 2628 3553 
L 2631 2963 
z
" transform="scale(0.015625)"/>
       <path id="DejaVuSans-69" d="M 603 3500 
L 1178 3500 
L 1178 0 
L 603 0 
L 603 3500 
z
M 603 4863 
L 1178 4863 
L 1178 4134 
L 603 4134 
L 603 4863 
z
" transform="scale(0.015625)"/>
       <path id="DejaVuSans-6e" d="M 3513 2113 
L 3513 0 
L 2938 0 
L 2938 2094 
Q 2938 2591 2744 2837 
Q 2550 3084 2163 3084 
Q 1697 3084 1428 2787 
Q 1159 2491 1159 1978 
L 1159 0 
L 581 0 
L 581 3500 
L 1159 3500 
L 1159 2956 
Q 1366 3272 1645 3428 
Q 1925 3584 2291 3584 
Q 2894 3584 3203 3211 
Q 3513 2838 3513 2113 
z
" transform="scale(0.015625)"/>
       <path id="DejaVuSans-7a" d="M 353 3500 
L 3084 3500 
L 3084 2975 
L 922 459 
L 3084 459 
L 3084 0 
L 275 0 
L 275 525 
L 2438 3041 
L 353 3041 
L 353 3500 
z
" transform="scale(0.015625)"/>
       <path id="DejaVuSans-65" d="M 3597 1894 
L 3597 1613 
L 953 1613 
Q 991 1019 1311 708 
Q 1631 397 2203 397 
Q 2534 397 2845 478 
Q 3156 559 3463 722 
L 3463 178 
Q 3153 47 2828 -22 
Q 2503 -91 2169 -91 
Q 1331 -91 842 396 
Q 353 884 353 1716 
Q 353 2575 817 3079 
Q 1281 3584 2069 3584 
Q 2775 3584 3186 3129 
Q 3597 2675 3597 1894 
z
M 3022 2063 
Q 3016 2534 2758 2815 
Q 2500 3097 2075 3097 
Q 1594 3097 1305 2825 
Q 1016 2553 972 2059 
L 3022 2063 
z
" transform="scale(0.015625)"/>
       <path id="DejaVuSans-78" d="M 3513 3500 
L 2247 1797 
L 3578 0 
L 2900 0 
L 1881 1375 
L 863 0 
L 184 0 
L 1544 1831 
L 300 3500 
L 978 3500 
L 1906 2253 
L 2834 3500 
L 3513 3500 
z
" transform="scale(0.015625)"/>
       <path id="DejaVuSans-70" d="M 1159 525 
L 1159 -1331 
L 581 -1331 
L 581 3500 
L 1159 3500 
L 1159 2969 
Q 1341 3281 1617 3432 
Q 1894 3584 2278 3584 
Q 2916 3584 3314 3078 
Q 3713 2572 3713 1747 
Q 3713 922 3314 415 
Q 2916 -91 2278 -91 
Q 1894 -91 1617 61 
Q 1341 213 1159 525 
z
M 3116 1747 
Q 3116 2381 2855 2742 
Q 2594 3103 2138 3103 
Q 1681 3103 1420 2742 
Q 1159 2381 1159 1747 
Q 1159 1113 1420 752 
Q 1681 391 2138 391 
Q 2594 391 2855 752 
Q 3116 1113 3116 1747 
z
" transform="scale(0.015625)"/>
       <path id="DejaVuSans-6c" d="M 603 4863 
L 1178 4863 
L 1178 0 
L 603 0 
L 603 4863 
z
" transform="scale(0.015625)"/>
       <path id="DejaVuSans-63" d="M 3122 3366 
L 3122 2828 
Q 2878 2963 2633 3030 
Q 2388 3097 2138 3097 
Q 1578 3097 1268 2742 
Q 959 2388 959 1747 
Q 959 1106 1268 751 
Q 1578 397 2138 397 
Q 2388 397 2633 464 
Q 2878 531 3122 666 
L 3122 134 
Q 2881 22 2623 -34 
Q 2366 -91 2075 -91 
Q 1284 -91 818 406 
Q 353 903 353 1747 
Q 353 2603 823 3093 
Q 1294 3584 2113 3584 
Q 2378 3584 2631 3529 
Q 2884 3475 3122 3366 
z
" transform="scale(0.015625)"/>
       <path id="DejaVuSans-64" d="M 2906 2969 
L 2906 4863 
L 3481 4863 
L 3481 0 
L 2906 0 
L 2906 525 
Q 2725 213 2448 61 
Q 2172 -91 1784 -91 
Q 1150 -91 751 415 
Q 353 922 353 1747 
Q 353 2572 751 3078 
Q 1150 3584 1784 3584 
Q 2172 3584 2448 3432 
Q 2725 3281 2906 2969 
z
M 947 1747 
Q 947 1113 1208 752 
Q 1469 391 1925 391 
Q 2381 391 2643 752 
Q 2906 1113 2906 1747 
Q 2906 2381 2643 2742 
Q 2381 3103 1925 3103 
Q 1469 3103 1208 2742 
Q 947 2381 947 1747 
z
" transform="scale(0.015625)"/>
       <path id="DejaVuSans-29" d="M 513 4856 
L 1013 4856 
Q 1481 4119 1714 3412 
Q 1947 2706 1947 2009 
Q 1947 1309 1714 600 
Q 1481 -109 1013 -844 
L 513 -844 
Q 928 -128 1133 580 
Q 1338 1288 1338 2009 
Q 1338 2731 1133 3434 
Q 928 4138 513 4856 
z
" transform="scale(0.015625)"/>
      </defs>
      <use xlink:href="#DejaVuSans-50"/>
      <use xlink:href="#DejaVuSans-43" x="60.302734"/>
      <use xlink:href="#DejaVuSans-31" x="130.126953"/>
      <use xlink:href="#DejaVuSans-20" x="193.75"/>
      <use xlink:href="#DejaVuSans-28" x="225.537109"/>
      <use xlink:href="#DejaVuSans-34" x="264.550781"/>
      <use xlink:href="#DejaVuSans-34" x="328.173828"/>
      <use xlink:href="#DejaVuSans-2e" x="391.796875"/>
      <use xlink:href="#DejaVuSans-37" x="423.583984"/>
      <use xlink:href="#DejaVuSans-37" x="487.207031"/>
      <use xlink:href="#DejaVuSans-25" x="550.830078"/>
      <use xlink:href="#DejaVuSans-20" x="645.849609"/>
      <use xlink:href="#DejaVuSans-76" x="677.636719"/>
      <use xlink:href="#DejaVuSans-61" x="736.816406"/>
      <use xlink:href="#DejaVuSans-72" x="798.095703"/>
      <use xlink:href="#DejaVuSans-69" x="839.208984"/>
      <use xlink:href="#DejaVuSans-61" x="866.992188"/>
      <use xlink:href="#DejaVuSans-6e" x="928.271484"/>
      <use xlink:href="#DejaVuSans-7a" x="991.650391"/>
      <use xlink:href="#DejaVuSans-61" x="1044.140625"/>
      <use xlink:href="#DejaVuSans-20" x="1105.419922"/>
      <use xlink:href="#DejaVuSans-65" x="1137.207031"/>
      <use xlink:href="#DejaVuSans-78" x="1196.980469"/>
      <use xlink:href="#DejaVuSans-70" x="1256.160156"/>
      <use xlink:href="#DejaVuSans-6c" x="1319.636719"/>
      <use xlink:href="#DejaVuSans-69" x="1347.419922"/>
      <use xlink:href="#DejaVuSans-63" x="1375.203125"/>
      <use xlink:href="#DejaVuSans-61" x="1430.183594"/>
      <use xlink:href="#DejaVuSans-64" x="1491.462891"/>
      <use xlink:href="#DejaVuSans-61" x="1554.939453"/>
      <use xlink:href="#DejaVuSans-29" x="1616.21875"/>
     </g>
    </g>
   </g>
   <g id="matplotlib.axis_2">
    <g id="ytick_1">
     <g id="line2d_11">
      <path d="M 44.555938 860.341869 
L 944.377938 860.341869 
" clip-path="url(#p0412a58680)" style="fill: none; stroke-dasharray: 0.8,1.32; stroke-dashoffset: 0; stroke: #b0b0b0; stroke-opacity: 0.7; stroke-width: 0.8"/>
     </g>
     <g id="line2d_12">
      <defs>
       <path id="m1894b12d72" d="M 0 0 
L -3.5 0 
" style="stroke: #000000; stroke-width: 0.8"/>
      </defs>
      <g>
       <use xlink:href="#m1894b12d72" x="44.555938" y="860.341869" style="stroke: #000000; stroke-width: 0.8"/>
      </g>
     </g>
     <g id="text_7">
      <!-- −2 -->
      <g transform="translate(22.81375 864.141087) scale(0.1 -0.1)">
       <use xlink:href="#DejaVuSans-2212"/>
       <use xlink:href="#DejaVuSans-32" x="83.789062"/>
      </g>
     </g>
    </g>
    <g id="ytick_2">
     <g id="line2d_13">
      <path d="M 44.555938 748.417202 
L 944.377938 748.417202 
" clip-path="url(#p0412a58680)" style="fill: none; stroke-dasharray: 0.8,1.32; stroke-dashoffset: 0; stroke: #b0b0b0; stroke-opacity: 0.7; stroke-width: 0.8"/>
     </g>
     <g id="line2d_14">
      <g>
       <use xlink:href="#m1894b12d72" x="44.555938" y="748.417202" style="stroke: #000000; stroke-width: 0.8"/>
      </g>
     </g>
     <g id="text_8">
      <!-- −1 -->
      <g transform="translate(22.81375 752.216421) scale(0.1 -0.1)">
       <use xlink:href="#DejaVuSans-2212"/>
       <use xlink:href="#DejaVuSans-31" x="83.789062"/>
      </g>
     </g>
    </g>
    <g id="ytick_3">
     <g id="line2d_15">
      <path d="M 44.555938 636.492535 
L 944.377938 636.492535 
" clip-path="url(#p0412a58680)" style="fill: none; stroke-dasharray: 0.8,1.32; stroke-dashoffset: 0; stroke: #b0b0b0; stroke-opacity: 0.7; stroke-width: 0.8"/>
     </g>
     <g id="line2d_16">
      <g>
       <use xlink:href="#m1894b12d72" x="44.555938" y="636.492535" style="stroke: #000000; stroke-width: 0.8"/>
      </g>
     </g>
     <g id="text_9">
      <!-- 0 -->
      <g transform="translate(31.193438 640.291754) scale(0.1 -0.1)">
       <use xlink:href="#DejaVuSans-30"/>
      </g>
     </g>
    </g>
    <g id="ytick_4">
     <g id="line2d_17">
      <path d="M 44.555938 524.567869 
L 944.377938 524.567869 
" clip-path="url(#p0412a58680)" style="fill: none; stroke-dasharray: 0.8,1.32; stroke-dashoffset: 0; stroke: #b0b0b0; stroke-opacity: 0.7; stroke-width: 0.8"/>
     </g>
     <g id="line2d_18">
      <g>
       <use xlink:href="#m1894b12d72" x="44.555938" y="524.567869" style="stroke: #000000; stroke-width: 0.8"/>
      </g>
     </g>
     <g id="text_10">
      <!-- 1 -->
      <g transform="translate(31.193438 528.367087) scale(0.1 -0.1)">
       <use xlink:href="#DejaVuSans-31"/>
      </g>
     </g>
    </g>
    <g id="ytick_5">
     <g id="line2d_19">
      <path d="M 44.555938 412.643202 
L 944.377938 412.643202 
" clip-path="url(#p0412a58680)" style="fill: none; stroke-dasharray: 0.8,1.32; stroke-dashoffset: 0; stroke: #b0b0b0; stroke-opacity: 0.7; stroke-width: 0.8"/>
     </g>
     <g id="line2d_20">
      <g>
       <use xlink:href="#m1894b12d72" x="44.555938" y="412.643202" style="stroke: #000000; stroke-width: 0.8"/>
      </g>
     </g>
     <g id="text_11">
      <!-- 2 -->
      <g transform="translate(31.193438 416.442421) scale(0.1 -0.1)">
       <use xlink:href="#DejaVuSans-32"/>
      </g>
     </g>
    </g>
    <g id="ytick_6">
     <g id="line2d_21">
      <path d="M 44.555938 300.718535 
L 944.377938 300.718535 
" clip-path="url(#p0412a58680)" style="fill: none; stroke-dasharray: 0.8,1.32; stroke-dashoffset: 0; stroke: #b0b0b0; stroke-opacity: 0.7; stroke-width: 0.8"/>
     </g>
     <g id="line2d_22">
      <g>
       <use xlink:href="#m1894b12d72" x="44.555938" y="300.718535" style="stroke: #000000; stroke-width: 0.8"/>
      </g>
     </g>
     <g id="text_12">
      <!-- 3 -->
      <g transform="translate(31.193438 304.517754) scale(0.1 -0.1)">
       <defs>
        <path id="DejaVuSans-33" d="M 2597 2516 
Q 3050 2419 3304 2112 
Q 3559 1806 3559 1356 
Q 3559 666 3084 287 
Q 2609 -91 1734 -91 
Q 1441 -91 1130 -33 
Q 819 25 488 141 
L 488 750 
Q 750 597 1062 519 
Q 1375 441 1716 441 
Q 2309 441 2620 675 
Q 2931 909 2931 1356 
Q 2931 1769 2642 2001 
Q 2353 2234 1838 2234 
L 1294 2234 
L 1294 2753 
L 1863 2753 
Q 2328 2753 2575 2939 
Q 2822 3125 2822 3475 
Q 2822 3834 2567 4026 
Q 2313 4219 1838 4219 
Q 1578 4219 1281 4162 
Q 984 4106 628 3988 
L 628 4550 
Q 988 4650 1302 4700 
Q 1616 4750 1894 4750 
Q 2613 4750 3031 4423 
Q 3450 4097 3450 3541 
Q 3450 3153 3228 2886 
Q 3006 2619 2597 2516 
z
" transform="scale(0.015625)"/>
       </defs>
       <use xlink:href="#DejaVuSans-33"/>
      </g>
     </g>
    </g>
    <g id="ytick_7">
     <g id="line2d_23">
      <path d="M 44.555938 188.793869 
L 944.377938 188.793869 
" clip-path="url(#p0412a58680)" style="fill: none; stroke-dasharray: 0.8,1.32; stroke-dashoffset: 0; stroke: #b0b0b0; stroke-opacity: 0.7; stroke-width: 0.8"/>
     </g>
     <g id="line2d_24">
      <g>
       <use xlink:href="#m1894b12d72" x="44.555938" y="188.793869" style="stroke: #000000; stroke-width: 0.8"/>
      </g>
     </g>
     <g id="text_13">
      <!-- 4 -->
      <g transform="translate(31.193438 192.593088) scale(0.1 -0.1)">
       <use xlink:href="#DejaVuSans-34"/>
      </g>
     </g>
    </g>
    <g id="ytick_8">
     <g id="line2d_25">
      <path d="M 44.555938 76.869202 
L 944.377938 76.869202 
" clip-path="url(#p0412a58680)" style="fill: none; stroke-dasharray: 0.8,1.32; stroke-dashoffset: 0; stroke: #b0b0b0; stroke-opacity: 0.7; stroke-width: 0.8"/>
     </g>
     <g id="line2d_26">
      <g>
       <use xlink:href="#m1894b12d72" x="44.555938" y="76.869202" style="stroke: #000000; stroke-width: 0.8"/>
      </g>
     </g>
     <g id="text_14">
      <!-- 5 -->
      <g transform="translate(31.193438 80.668421) scale(0.1 -0.1)">
       <defs>
        <path id="DejaVuSans-35" d="M 691 4666 
L 3169 4666 
L 3169 4134 
L 1269 4134 
L 1269 2991 
Q 1406 3038 1543 3061 
Q 1681 3084 1819 3084 
Q 2600 3084 3056 2656 
Q 3513 2228 3513 1497 
Q 3513 744 3044 326 
Q 2575 -91 1722 -91 
Q 1428 -91 1123 -41 
Q 819 9 494 109 
L 494 744 
Q 775 591 1075 516 
Q 1375 441 1709 441 
Q 2250 441 2565 725 
Q 2881 1009 2881 1497 
Q 2881 1984 2565 2268 
Q 2250 2553 1709 2553 
Q 1456 2553 1204 2497 
Q 953 2441 691 2322 
L 691 4666 
z
" transform="scale(0.015625)"/>
       </defs>
       <use xlink:href="#DejaVuSans-35"/>
      </g>
     </g>
    </g>
    <g id="text_15">
     <!-- PC2 (16.04% varianza explicada) -->
     <g transform="translate(16.318125 571.412656) rotate(-90) scale(0.12 -0.12)">
      <use xlink:href="#DejaVuSans-50"/>
      <use xlink:href="#DejaVuSans-43" x="60.302734"/>
      <use xlink:href="#DejaVuSans-32" x="130.126953"/>
      <use xlink:href="#DejaVuSans-20" x="193.75"/>
      <use xlink:href="#DejaVuSans-28" x="225.537109"/>
      <use xlink:href="#DejaVuSans-31" x="264.550781"/>
      <use xlink:href="#DejaVuSans-36" x="328.173828"/>
      <use xlink:href="#DejaVuSans-2e" x="391.796875"/>
      <use xlink:href="#DejaVuSans-30" x="423.583984"/>
      <use xlink:href="#DejaVuSans-34" x="487.207031"/>
      <use xlink:href="#DejaVuSans-25" x="550.830078"/>
      <use xlink:href="#DejaVuSans-20" x="645.849609"/>
      <use xlink:href="#DejaVuSans-76" x="677.636719"/>
      <use xlink:href="#DejaVuSans-61" x="736.816406"/>
      <use xlink:href="#DejaVuSans-72" x="798.095703"/>
      <use xlink:href="#DejaVuSans-69" x="839.208984"/>
      <use xlink:href="#DejaVuSans-61" x="866.992188"/>
      <use xlink:href="#DejaVuSans-6e" x="928.271484"/>
      <use xlink:href="#DejaVuSans-7a" x="991.650391"/>
      <use xlink:href="#DejaVuSans-61" x="1044.140625"/>
      <use xlink:href="#DejaVuSans-20" x="1105.419922"/>
      <use xlink:href="#DejaVuSans-65" x="1137.207031"/>
      <use xlink:href="#DejaVuSans-78" x="1196.980469"/>
      <use xlink:href="#DejaVuSans-70" x="1256.160156"/>
      <use xlink:href="#DejaVuSans-6c" x="1319.636719"/>
      <use xlink:href="#DejaVuSans-69" x="1347.419922"/>
      <use xlink:href="#DejaVuSans-63" x="1375.203125"/>
      <use xlink:href="#DejaVuSans-61" x="1430.183594"/>
      <use xlink:href="#DejaVuSans-64" x="1491.462891"/>
      <use xlink:href="#DejaVuSans-61" x="1554.939453"/>
      <use xlink:href="#DejaVuSans-29" x="1616.21875"/>
     </g>
    </g>
   </g>
   <g id="line2d_27">
    <path d="M 44.555938 636.492535 
L 944.377938 636.492535 
" clip-path="url(#p0412a58680)" style="fill: none; stroke-dasharray: 1.85,0.8; stroke-dashoffset: 0; stroke: #000000; stroke-width: 0.5"/>
   </g>
   <g id="line2d_28">
    <path d="M 365.77517 918.997656 
L 365.77517 25.197656 
" clip-path="url(#p0412a58680)" style="fill: none; stroke-dasharray: 1.85,0.8; stroke-dashoffset: 0; stroke: #000000; stroke-width: 0.5"/>
   </g>
   <g id="patch_7">
    <path d="M 44.555938 918.997656 
L 44.555938 25.197656 
" style="fill: none; stroke: #000000; stroke-width: 0.8; stroke-linejoin: miter; stroke-linecap: square"/>
   </g>
   <g id="patch_8">
    <path d="M 944.377938 918.997656 
L 944.377938 25.197656 
" style="fill: none; stroke: #000000; stroke-width: 0.8; stroke-linejoin: miter; stroke-linecap: square"/>
   </g>
   <g id="patch_9">
    <path d="M 44.555938 918.997656 
L 944.377938 918.997656 
" style="fill: none; stroke: #000000; stroke-width: 0.8; stroke-linejoin: miter; stroke-linecap: square"/>
   </g>
   <g id="patch_10">
    <path d="M 44.555938 25.197656 
L 944.377938 25.197656 
" style="fill: none; stroke: #000000; stroke-width: 0.8; stroke-linejoin: miter; stroke-linecap: square"/>
   </g>
   <g id="PathCollection_1">
    <defs>
     <path id="C0_0_6fc78ae0a9" d="M 0 3.872983 
C 1.027127 3.872983 2.012324 3.464901 2.738613 2.738613 
C 3.464901 2.012324 3.872983 1.027127 3.872983 -0 
C 3.872983 -1.027127 3.464901 -2.012324 2.738613 -2.738613 
C 2.012324 -3.464901 1.027127 -3.872983 0 -3.872983 
C -1.027127 -3.872983 -2.012324 -3.464901 -2.738613 -2.738613 
C -3.464901 -2.012324 -3.872983 -1.027127 -3.872983 0 
C -3.872983 1.027127 -3.464901 2.012324 -2.738613 2.738613 
C -2.012324 3.464901 -1.027127 3.872983 0 3.872983 
z
"/>
    </defs>
    <g clip-path="url(#p0412a58680)">
     <use xlink:href="#C0_0_6fc78ae0a9" x="120.918832" y="543.084252" style="fill: #0000ff; fill-opacity: 0.7; stroke: #0000ff; stroke-opacity: 0.7"/>
    </g>
    <g clip-path="url(#p0412a58680)">
     <use xlink:href="#C0_0_6fc78ae0a9" x="217.398468" y="707.928151" style="fill: #0000ff; fill-opacity: 0.7; stroke: #0000ff; stroke-opacity: 0.7"/>
    </g>
    <g clip-path="url(#p0412a58680)">
     <use xlink:href="#C0_0_6fc78ae0a9" x="285.114138" y="536.182881" style="fill: #0000ff; fill-opacity: 0.7; stroke: #0000ff; stroke-opacity: 0.7"/>
    </g>
    <g clip-path="url(#p0412a58680)">
     <use xlink:href="#C0_0_6fc78ae0a9" x="211.345258" y="811.977287" style="fill: #0000ff; fill-opacity: 0.7; stroke: #0000ff; stroke-opacity: 0.7"/>
    </g>
    <g clip-path="url(#p0412a58680)">
     <use xlink:href="#C0_0_6fc78ae0a9" x="903.476938" y="411.981742" style="fill: #ffa500; fill-opacity: 0.7; stroke: #ffa500; stroke-opacity: 0.7"/>
    </g>
    <g clip-path="url(#p0412a58680)">
     <use xlink:href="#C0_0_6fc78ae0a9" x="492.476589" y="653.160391" style="fill: #0000ff; fill-opacity: 0.7; stroke: #0000ff; stroke-opacity: 0.7"/>
    </g>
    <g clip-path="url(#p0412a58680)">
     <use xlink:href="#C0_0_6fc78ae0a9" x="196.475971" y="804.450142" style="fill: #0000ff; fill-opacity: 0.7; stroke: #0000ff; stroke-opacity: 0.7"/>
    </g>
    <g clip-path="url(#p0412a58680)">
     <use xlink:href="#C0_0_6fc78ae0a9" x="118.941533" y="672.597626" style="fill: #800080; fill-opacity: 0.7; stroke: #800080; stroke-opacity: 0.7"/>
    </g>
    <g clip-path="url(#p0412a58680)">
     <use xlink:href="#C0_0_6fc78ae0a9" x="338.770078" y="656.279101" style="fill: #0000ff; fill-opacity: 0.7; stroke: #0000ff; stroke-opacity: 0.7"/>
    </g>
    <g clip-path="url(#p0412a58680)">
     <use xlink:href="#C0_0_6fc78ae0a9" x="546.563416" y="186.111818" style="fill: #008000; fill-opacity: 0.7; stroke: #008000; stroke-opacity: 0.7"/>
    </g>
    <g clip-path="url(#p0412a58680)">
     <use xlink:href="#C0_0_6fc78ae0a9" x="85.456938" y="368.131657" style="fill: #800080; fill-opacity: 0.7; stroke: #800080; stroke-opacity: 0.7"/>
    </g>
    <g clip-path="url(#p0412a58680)">
     <use xlink:href="#C0_0_6fc78ae0a9" x="242.549589" y="702.444379" style="fill: #0000ff; fill-opacity: 0.7; stroke: #0000ff; stroke-opacity: 0.7"/>
    </g>
    <g clip-path="url(#p0412a58680)">
     <use xlink:href="#C0_0_6fc78ae0a9" x="421.076361" y="727.153523" style="fill: #008000; fill-opacity: 0.7; stroke: #008000; stroke-opacity: 0.7"/>
    </g>
    <g clip-path="url(#p0412a58680)">
     <use xlink:href="#C0_0_6fc78ae0a9" x="410.810785" y="718.600804" style="fill: #008000; fill-opacity: 0.7; stroke: #008000; stroke-opacity: 0.7"/>
    </g>
    <g clip-path="url(#p0412a58680)">
     <use xlink:href="#C0_0_6fc78ae0a9" x="813.835896" y="810.162101" style="fill: #ffa500; fill-opacity: 0.7; stroke: #ffa500; stroke-opacity: 0.7"/>
    </g>
    <g clip-path="url(#p0412a58680)">
     <use xlink:href="#C0_0_6fc78ae0a9" x="818.562242" y="802.161577" style="fill: #ffa500; fill-opacity: 0.7; stroke: #ffa500; stroke-opacity: 0.7"/>
    </g>
    <g clip-path="url(#p0412a58680)">
     <use xlink:href="#C0_0_6fc78ae0a9" x="353.32816" y="450.377022" style="fill: #008000; fill-opacity: 0.7; stroke: #008000; stroke-opacity: 0.7"/>
    </g>
    <g clip-path="url(#p0412a58680)">
     <use xlink:href="#C0_0_6fc78ae0a9" x="350.558986" y="736.291952" style="fill: #0000ff; fill-opacity: 0.7; stroke: #0000ff; stroke-opacity: 0.7"/>
    </g>
    <g clip-path="url(#p0412a58680)">
     <use xlink:href="#C0_0_6fc78ae0a9" x="241.155224" y="707.991431" style="fill: #ffa500; fill-opacity: 0.7; stroke: #ffa500; stroke-opacity: 0.7"/>
    </g>
    <g clip-path="url(#p0412a58680)">
     <use xlink:href="#C0_0_6fc78ae0a9" x="431.452648" y="231.562802" style="fill: #ffa500; fill-opacity: 0.7; stroke: #ffa500; stroke-opacity: 0.7"/>
    </g>
    <g clip-path="url(#p0412a58680)">
     <use xlink:href="#C0_0_6fc78ae0a9" x="406.110155" y="664.511181" style="fill: #008000; fill-opacity: 0.7; stroke: #008000; stroke-opacity: 0.7"/>
    </g>
    <g clip-path="url(#p0412a58680)">
     <use xlink:href="#C0_0_6fc78ae0a9" x="280.707013" y="715.448781" style="fill: #0000ff; fill-opacity: 0.7; stroke: #0000ff; stroke-opacity: 0.7"/>
    </g>
    <g clip-path="url(#p0412a58680)">
     <use xlink:href="#C0_0_6fc78ae0a9" x="415.547273" y="531.684427" style="fill: #008000; fill-opacity: 0.7; stroke: #008000; stroke-opacity: 0.7"/>
    </g>
    <g clip-path="url(#p0412a58680)">
     <use xlink:href="#C0_0_6fc78ae0a9" x="607.945293" y="824.116762" style="fill: #008000; fill-opacity: 0.7; stroke: #008000; stroke-opacity: 0.7"/>
    </g>
    <g clip-path="url(#p0412a58680)">
     <use xlink:href="#C0_0_6fc78ae0a9" x="235.517514" y="769.859769" style="fill: #0000ff; fill-opacity: 0.7; stroke: #0000ff; stroke-opacity: 0.7"/>
    </g>
    <g clip-path="url(#p0412a58680)">
     <use xlink:href="#C0_0_6fc78ae0a9" x="95.003644" y="699.745591" style="fill: #800080; fill-opacity: 0.7; stroke: #800080; stroke-opacity: 0.7"/>
    </g>
    <g clip-path="url(#p0412a58680)">
     <use xlink:href="#C0_0_6fc78ae0a9" x="506.123964" y="542.936517" style="fill: #008000; fill-opacity: 0.7; stroke: #008000; stroke-opacity: 0.7"/>
    </g>
    <g clip-path="url(#p0412a58680)">
     <use xlink:href="#C0_0_6fc78ae0a9" x="323.974357" y="729.288049" style="fill: #008000; fill-opacity: 0.7; stroke: #008000; stroke-opacity: 0.7"/>
    </g>
    <g clip-path="url(#p0412a58680)">
     <use xlink:href="#C0_0_6fc78ae0a9" x="485.813322" y="859.783525" style="fill: #008000; fill-opacity: 0.7; stroke: #008000; stroke-opacity: 0.7"/>
    </g>
    <g clip-path="url(#p0412a58680)">
     <use xlink:href="#C0_0_6fc78ae0a9" x="288.766422" y="669.623078" style="fill: #008000; fill-opacity: 0.7; stroke: #008000; stroke-opacity: 0.7"/>
    </g>
    <g clip-path="url(#p0412a58680)">
     <use xlink:href="#C0_0_6fc78ae0a9" x="88.176581" y="506.576406" style="fill: #800080; fill-opacity: 0.7; stroke: #800080; stroke-opacity: 0.7"/>
    </g>
    <g clip-path="url(#p0412a58680)">
     <use xlink:href="#C0_0_6fc78ae0a9" x="578.271391" y="643.479403" style="fill: #008000; fill-opacity: 0.7; stroke: #008000; stroke-opacity: 0.7"/>
    </g>
    <g clip-path="url(#p0412a58680)">
     <use xlink:href="#C0_0_6fc78ae0a9" x="158.355646" y="608.569539" style="fill: #0000ff; fill-opacity: 0.7; stroke: #0000ff; stroke-opacity: 0.7"/>
    </g>
   </g>
   <g id="text_16">
    <!-- AUS -->
    <g transform="translate(120.461375 540.868859) scale(0.1 -0.1)">
     <defs>
      <path id="DejaVuSans-41" d="M 2188 4044 
L 1331 1722 
L 3047 1722 
L 2188 4044 
z
M 1831 4666 
L 2547 4666 
L 4325 0 
L 3669 0 
L 3244 1197 
L 1141 1197 
L 716 0 
L 50 0 
L 1831 4666 
z
" transform="scale(0.015625)"/>
      <path id="DejaVuSans-55" d="M 556 4666 
L 1191 4666 
L 1191 1831 
Q 1191 1081 1462 751 
Q 1734 422 2344 422 
Q 2950 422 3222 751 
Q 3494 1081 3494 1831 
L 3494 4666 
L 4128 4666 
L 4128 1753 
Q 4128 841 3676 375 
Q 3225 -91 2344 -91 
Q 1459 -91 1007 375 
Q 556 841 556 1753 
L 556 4666 
z
" transform="scale(0.015625)"/>
      <path id="DejaVuSans-53" d="M 3425 4513 
L 3425 3897 
Q 3066 4069 2747 4153 
Q 2428 4238 2131 4238 
Q 1616 4238 1336 4038 
Q 1056 3838 1056 3469 
Q 1056 3159 1242 3001 
Q 1428 2844 1947 2747 
L 2328 2669 
Q 3034 2534 3370 2195 
Q 3706 1856 3706 1288 
Q 3706 609 3251 259 
Q 2797 -91 1919 -91 
Q 1588 -91 1214 -16 
Q 841 59 441 206 
L 441 856 
Q 825 641 1194 531 
Q 1563 422 1919 422 
Q 2459 422 2753 634 
Q 3047 847 3047 1241 
Q 3047 1584 2836 1778 
Q 2625 1972 2144 2069 
L 1759 2144 
Q 1053 2284 737 2584 
Q 422 2884 422 3419 
Q 422 4038 858 4394 
Q 1294 4750 2059 4750 
Q 2388 4750 2728 4690 
Q 3069 4631 3425 4513 
z
" transform="scale(0.015625)"/>
     </defs>
     <use xlink:href="#DejaVuSans-41"/>
     <use xlink:href="#DejaVuSans-55" x="68.408203"/>
     <use xlink:href="#DejaVuSans-53" x="141.601562"/>
    </g>
   </g>
   <g id="text_17">
    <!-- BEL -->
    <g transform="translate(217.093473 703.448235) scale(0.1 -0.1)">
     <defs>
      <path id="DejaVuSans-42" d="M 1259 2228 
L 1259 519 
L 2272 519 
Q 2781 519 3026 730 
Q 3272 941 3272 1375 
Q 3272 1813 3026 2020 
Q 2781 2228 2272 2228 
L 1259 2228 
z
M 1259 4147 
L 1259 2741 
L 2194 2741 
Q 2656 2741 2882 2914 
Q 3109 3088 3109 3444 
Q 3109 3797 2882 3972 
Q 2656 4147 2194 4147 
L 1259 4147 
z
M 628 4666 
L 2241 4666 
Q 2963 4666 3353 4366 
Q 3744 4066 3744 3513 
Q 3744 3084 3544 2831 
Q 3344 2578 2956 2516 
Q 3422 2416 3680 2098 
Q 3938 1781 3938 1306 
Q 3938 681 3513 340 
Q 3088 0 2303 0 
L 628 0 
L 628 4666 
z
" transform="scale(0.015625)"/>
      <path id="DejaVuSans-45" d="M 628 4666 
L 3578 4666 
L 3578 4134 
L 1259 4134 
L 1259 2753 
L 3481 2753 
L 3481 2222 
L 1259 2222 
L 1259 531 
L 3634 531 
L 3634 0 
L 628 0 
L 628 4666 
z
" transform="scale(0.015625)"/>
      <path id="DejaVuSans-4c" d="M 628 4666 
L 1259 4666 
L 1259 531 
L 3531 531 
L 3531 0 
L 628 0 
L 628 4666 
z
" transform="scale(0.015625)"/>
     </defs>
     <use xlink:href="#DejaVuSans-42"/>
     <use xlink:href="#DejaVuSans-45" x="68.603516"/>
     <use xlink:href="#DejaVuSans-4c" x="131.787109"/>
    </g>
   </g>
   <g id="text_18">
    <!-- CAN -->
    <g transform="translate(284.66139 533.967488) scale(0.1 -0.1)">
     <defs>
      <path id="DejaVuSans-4e" d="M 628 4666 
L 1478 4666 
L 3547 763 
L 3547 4666 
L 4159 4666 
L 4159 0 
L 3309 0 
L 1241 3903 
L 1241 0 
L 628 0 
L 628 4666 
z
" transform="scale(0.015625)"/>
     </defs>
     <use xlink:href="#DejaVuSans-43"/>
     <use xlink:href="#DejaVuSans-41" x="69.824219"/>
     <use xlink:href="#DejaVuSans-4e" x="138.232422"/>
    </g>
   </g>
   <g id="text_19">
    <!-- CHE -->
    <g transform="translate(212.827129 816.841979) scale(0.1 -0.1)">
     <defs>
      <path id="DejaVuSans-48" d="M 628 4666 
L 1259 4666 
L 1259 2753 
L 3553 2753 
L 3553 4666 
L 4184 4666 
L 4184 0 
L 3553 0 
L 3553 2222 
L 1259 2222 
L 1259 0 
L 628 0 
L 628 4666 
z
" transform="scale(0.015625)"/>
     </defs>
     <use xlink:href="#DejaVuSans-43"/>
     <use xlink:href="#DejaVuSans-48" x="69.824219"/>
     <use xlink:href="#DejaVuSans-45" x="145.019531"/>
    </g>
   </g>
   <g id="text_20">
    <!-- CHN -->
    <g transform="translate(902.966547 409.766348) scale(0.1 -0.1)">
     <use xlink:href="#DejaVuSans-43"/>
     <use xlink:href="#DejaVuSans-48" x="69.824219"/>
     <use xlink:href="#DejaVuSans-4e" x="145.019531"/>
    </g>
   </g>
   <g id="text_21">
    <!-- CZE -->
    <g transform="translate(492.076313 650.944998) scale(0.1 -0.1)">
     <defs>
      <path id="DejaVuSans-5a" d="M 359 4666 
L 4025 4666 
L 4025 4184 
L 1075 531 
L 4097 531 
L 4097 0 
L 288 0 
L 288 481 
L 3238 4134 
L 359 4134 
L 359 4666 
z
" transform="scale(0.015625)"/>
     </defs>
     <use xlink:href="#DejaVuSans-43"/>
     <use xlink:href="#DejaVuSans-5a" x="69.824219"/>
     <use xlink:href="#DejaVuSans-45" x="138.330078"/>
    </g>
   </g>
   <g id="text_22">
    <!-- DEU -->
    <g transform="translate(193.850665 796.430853) scale(0.1 -0.1)">
     <defs>
      <path id="DejaVuSans-44" d="M 1259 4147 
L 1259 519 
L 2022 519 
Q 2988 519 3436 956 
Q 3884 1394 3884 2338 
Q 3884 3275 3436 3711 
Q 2988 4147 2022 4147 
L 1259 4147 
z
M 628 4666 
L 1925 4666 
Q 3281 4666 3915 4102 
Q 4550 3538 4550 2338 
Q 4550 1131 3912 565 
Q 3275 0 1925 0 
L 628 0 
L 628 4666 
z
" transform="scale(0.015625)"/>
     </defs>
     <use xlink:href="#DejaVuSans-44"/>
     <use xlink:href="#DejaVuSans-45" x="77.001953"/>
     <use xlink:href="#DejaVuSans-55" x="140.185547"/>
    </g>
   </g>
   <g id="text_23">
    <!-- DNK -->
    <g transform="translate(118.432855 670.382233) scale(0.1 -0.1)">
     <defs>
      <path id="DejaVuSans-4b" d="M 628 4666 
L 1259 4666 
L 1259 2694 
L 3353 4666 
L 4166 4666 
L 1850 2491 
L 4331 0 
L 3500 0 
L 1259 2247 
L 1259 0 
L 628 0 
L 628 4666 
z
" transform="scale(0.015625)"/>
     </defs>
     <use xlink:href="#DejaVuSans-44"/>
     <use xlink:href="#DejaVuSans-4e" x="77.001953"/>
     <use xlink:href="#DejaVuSans-4b" x="151.806641"/>
    </g>
   </g>
   <g id="text_24">
    <!-- ESP -->
    <g transform="translate(338.411798 654.063707) scale(0.1 -0.1)">
     <use xlink:href="#DejaVuSans-45"/>
     <use xlink:href="#DejaVuSans-53" x="63.183594"/>
     <use xlink:href="#DejaVuSans-50" x="126.660156"/>
    </g>
   </g>
   <g id="text_25">
    <!-- EST -->
    <g transform="translate(546.206388 183.896425) scale(0.1 -0.1)">
     <defs>
      <path id="DejaVuSans-54" d="M -19 4666 
L 3928 4666 
L 3928 4134 
L 2272 4134 
L 2272 0 
L 1638 0 
L 1638 4134 
L -19 4134 
L -19 4666 
z
" transform="scale(0.015625)"/>
     </defs>
     <use xlink:href="#DejaVuSans-45"/>
     <use xlink:href="#DejaVuSans-53" x="63.183594"/>
     <use xlink:href="#DejaVuSans-54" x="126.660156"/>
    </g>
   </g>
   <g id="text_26">
    <!-- FIN -->
    <g transform="translate(85.226879 365.916263) scale(0.1 -0.1)">
     <defs>
      <path id="DejaVuSans-46" d="M 628 4666 
L 3309 4666 
L 3309 4134 
L 1259 4134 
L 1259 2759 
L 3109 2759 
L 3109 2228 
L 1259 2228 
L 1259 0 
L 628 0 
L 628 4666 
z
" transform="scale(0.015625)"/>
      <path id="DejaVuSans-49" d="M 628 4666 
L 1259 4666 
L 1259 0 
L 628 0 
L 628 4666 
z
" transform="scale(0.015625)"/>
     </defs>
     <use xlink:href="#DejaVuSans-46"/>
     <use xlink:href="#DejaVuSans-49" x="57.519531"/>
     <use xlink:href="#DejaVuSans-4e" x="87.011719"/>
    </g>
   </g>
   <g id="text_27">
    <!-- FRA -->
    <g transform="translate(243.501388 691.937706) scale(0.1 -0.1)">
     <defs>
      <path id="DejaVuSans-52" d="M 2841 2188 
Q 3044 2119 3236 1894 
Q 3428 1669 3622 1275 
L 4263 0 
L 3584 0 
L 2988 1197 
Q 2756 1666 2539 1819 
Q 2322 1972 1947 1972 
L 1259 1972 
L 1259 0 
L 628 0 
L 628 4666 
L 2053 4666 
Q 2853 4666 3247 4331 
Q 3641 3997 3641 3322 
Q 3641 2881 3436 2590 
Q 3231 2300 2841 2188 
z
M 1259 4147 
L 1259 2491 
L 2053 2491 
Q 2509 2491 2742 2702 
Q 2975 2913 2975 3322 
Q 2975 3731 2742 3939 
Q 2509 4147 2053 4147 
L 1259 4147 
z
" transform="scale(0.015625)"/>
     </defs>
     <use xlink:href="#DejaVuSans-46"/>
     <use xlink:href="#DejaVuSans-52" x="57.519531"/>
     <use xlink:href="#DejaVuSans-41" x="123.001953"/>
    </g>
   </g>
   <g id="text_28">
    <!-- GRC -->
    <g transform="translate(420.605483 729.214489) scale(0.1 -0.1)">
     <defs>
      <path id="DejaVuSans-47" d="M 3809 666 
L 3809 1919 
L 2778 1919 
L 2778 2438 
L 4434 2438 
L 4434 434 
Q 4069 175 3628 42 
Q 3188 -91 2688 -91 
Q 1594 -91 976 548 
Q 359 1188 359 2328 
Q 359 3472 976 4111 
Q 1594 4750 2688 4750 
Q 3144 4750 3555 4637 
Q 3966 4525 4313 4306 
L 4313 3634 
Q 3963 3931 3569 4081 
Q 3175 4231 2741 4231 
Q 1884 4231 1454 3753 
Q 1025 3275 1025 2328 
Q 1025 1384 1454 906 
Q 1884 428 2741 428 
Q 3075 428 3337 486 
Q 3600 544 3809 666 
z
" transform="scale(0.015625)"/>
     </defs>
     <use xlink:href="#DejaVuSans-47"/>
     <use xlink:href="#DejaVuSans-52" x="77.490234"/>
     <use xlink:href="#DejaVuSans-43" x="141.972656"/>
    </g>
   </g>
   <g id="text_29">
    <!-- HUN -->
    <g transform="translate(410.25337 713.898027) scale(0.1 -0.1)">
     <use xlink:href="#DejaVuSans-48"/>
     <use xlink:href="#DejaVuSans-55" x="75.195312"/>
     <use xlink:href="#DejaVuSans-4e" x="148.388672"/>
    </g>
   </g>
   <g id="text_30">
    <!-- IDN -->
    <g transform="translate(813.518541 813.750604) scale(0.1 -0.1)">
     <use xlink:href="#DejaVuSans-49"/>
     <use xlink:href="#DejaVuSans-44" x="29.492188"/>
     <use xlink:href="#DejaVuSans-4e" x="106.494141"/>
    </g>
   </g>
   <g id="text_31">
    <!-- IND -->
    <g transform="translate(818.244886 797.4588) scale(0.1 -0.1)">
     <use xlink:href="#DejaVuSans-49"/>
     <use xlink:href="#DejaVuSans-4e" x="29.492188"/>
     <use xlink:href="#DejaVuSans-44" x="104.296875"/>
    </g>
   </g>
   <g id="text_32">
    <!-- IRL -->
    <g transform="translate(353.131835 448.161629) scale(0.1 -0.1)">
     <use xlink:href="#DejaVuSans-49"/>
     <use xlink:href="#DejaVuSans-52" x="29.492188"/>
     <use xlink:href="#DejaVuSans-4c" x="98.974609"/>
    </g>
   </g>
   <g id="text_33">
    <!-- ITA -->
    <g transform="translate(350.37484 734.076559) scale(0.1 -0.1)">
     <use xlink:href="#DejaVuSans-49"/>
     <use xlink:href="#DejaVuSans-54" x="29.492188"/>
     <use xlink:href="#DejaVuSans-41" x="82.826172"/>
    </g>
   </g>
   <g id="text_34">
    <!-- JPN -->
    <g transform="translate(240.907048 713.524331) scale(0.1 -0.1)">
     <defs>
      <path id="DejaVuSans-4a" d="M 628 4666 
L 1259 4666 
L 1259 325 
Q 1259 -519 939 -900 
Q 619 -1281 -91 -1281 
L -331 -1281 
L -331 -750 
L -134 -750 
Q 284 -750 456 -515 
Q 628 -281 628 325 
L 628 4666 
z
" transform="scale(0.015625)"/>
     </defs>
     <use xlink:href="#DejaVuSans-4a"/>
     <use xlink:href="#DejaVuSans-50" x="29.492188"/>
     <use xlink:href="#DejaVuSans-4e" x="89.794922"/>
    </g>
   </g>
   <g id="text_35">
    <!-- KOR -->
    <g transform="translate(430.955978 229.347409) scale(0.1 -0.1)">
     <defs>
      <path id="DejaVuSans-4f" d="M 2522 4238 
Q 1834 4238 1429 3725 
Q 1025 3213 1025 2328 
Q 1025 1447 1429 934 
Q 1834 422 2522 422 
Q 3209 422 3611 934 
Q 4013 1447 4013 2328 
Q 4013 3213 3611 3725 
Q 3209 4238 2522 4238 
z
M 2522 4750 
Q 3503 4750 4090 4092 
Q 4678 3434 4678 2328 
Q 4678 1225 4090 567 
Q 3503 -91 2522 -91 
Q 1538 -91 948 565 
Q 359 1222 359 2328 
Q 359 3434 948 4092 
Q 1538 4750 2522 4750 
z
" transform="scale(0.015625)"/>
     </defs>
     <use xlink:href="#DejaVuSans-4b"/>
     <use xlink:href="#DejaVuSans-4f" x="60.076172"/>
     <use xlink:href="#DejaVuSans-52" x="138.787109"/>
    </g>
   </g>
   <g id="text_36">
    <!-- LTU -->
    <g transform="translate(405.845133 662.295788) scale(0.1 -0.1)">
     <use xlink:href="#DejaVuSans-4c"/>
     <use xlink:href="#DejaVuSans-54" x="41.962891"/>
     <use xlink:href="#DejaVuSans-55" x="103.046875"/>
    </g>
   </g>
   <g id="text_37">
    <!-- LUX -->
    <g transform="translate(280.318745 713.233388) scale(0.1 -0.1)">
     <defs>
      <path id="DejaVuSans-58" d="M 403 4666 
L 1081 4666 
L 2241 2931 
L 3406 4666 
L 4084 4666 
L 2584 2425 
L 4184 0 
L 3506 0 
L 2194 1984 
L 872 0 
L 191 0 
L 1856 2491 
L 403 4666 
z
" transform="scale(0.015625)"/>
     </defs>
     <use xlink:href="#DejaVuSans-4c"/>
     <use xlink:href="#DejaVuSans-55" x="50.712891"/>
     <use xlink:href="#DejaVuSans-58" x="123.90625"/>
    </g>
   </g>
   <g id="text_38">
    <!-- LVA -->
    <g transform="translate(415.295842 529.469034) scale(0.1 -0.1)">
     <defs>
      <path id="DejaVuSans-56" d="M 1831 0 
L 50 4666 
L 709 4666 
L 2188 738 
L 3669 4666 
L 4325 4666 
L 2547 0 
L 1831 0 
z
" transform="scale(0.015625)"/>
     </defs>
     <use xlink:href="#DejaVuSans-4c"/>
     <use xlink:href="#DejaVuSans-56" x="44.712891"/>
     <use xlink:href="#DejaVuSans-41" x="106.746094"/>
    </g>
   </g>
   <g id="text_39">
    <!-- MEX -->
    <g transform="translate(607.448024 821.901369) scale(0.1 -0.1)">
     <defs>
      <path id="DejaVuSans-4d" d="M 628 4666 
L 1569 4666 
L 2759 1491 
L 3956 4666 
L 4897 4666 
L 4897 0 
L 4281 0 
L 4281 4097 
L 3078 897 
L 2444 897 
L 1241 4097 
L 1241 0 
L 628 0 
L 628 4666 
z
" transform="scale(0.015625)"/>
     </defs>
     <use xlink:href="#DejaVuSans-4d"/>
     <use xlink:href="#DejaVuSans-45" x="86.279297"/>
     <use xlink:href="#DejaVuSans-58" x="149.462891"/>
    </g>
   </g>
   <g id="text_40">
    <!-- NLD -->
    <g transform="translate(235.09866 767.644376) scale(0.1 -0.1)">
     <use xlink:href="#DejaVuSans-4e"/>
     <use xlink:href="#DejaVuSans-4c" x="74.804688"/>
     <use xlink:href="#DejaVuSans-44" x="130.517578"/>
    </g>
   </g>
   <g id="text_41">
    <!-- NOR -->
    <g transform="translate(94.455604 697.530198) scale(0.1 -0.1)">
     <use xlink:href="#DejaVuSans-4e"/>
     <use xlink:href="#DejaVuSans-4f" x="74.804688"/>
     <use xlink:href="#DejaVuSans-52" x="153.515625"/>
    </g>
   </g>
   <g id="text_42">
    <!-- POL -->
    <g transform="translate(505.740234 540.721124) scale(0.1 -0.1)">
     <use xlink:href="#DejaVuSans-50"/>
     <use xlink:href="#DejaVuSans-4f" x="60.302734"/>
     <use xlink:href="#DejaVuSans-4c" x="139.013672"/>
    </g>
   </g>
   <g id="text_43">
    <!-- PRT -->
    <g transform="translate(323.663102 727.072656) scale(0.1 -0.1)">
     <use xlink:href="#DejaVuSans-50"/>
     <use xlink:href="#DejaVuSans-52" x="60.302734"/>
     <use xlink:href="#DejaVuSans-54" x="122.535156"/>
    </g>
   </g>
   <g id="text_44">
    <!-- SVK -->
    <g transform="translate(485.373502 857.568132) scale(0.1 -0.1)">
     <use xlink:href="#DejaVuSans-53"/>
     <use xlink:href="#DejaVuSans-56" x="63.476562"/>
     <use xlink:href="#DejaVuSans-4b" x="131.884766"/>
    </g>
   </g>
   <g id="text_45">
    <!-- SVN -->
    <g transform="translate(288.308344 667.407685) scale(0.1 -0.1)">
     <use xlink:href="#DejaVuSans-53"/>
     <use xlink:href="#DejaVuSans-56" x="63.476562"/>
     <use xlink:href="#DejaVuSans-4e" x="131.884766"/>
    </g>
   </g>
   <g id="text_46">
    <!-- SWE -->
    <g transform="translate(87.622923 504.361013) scale(0.1 -0.1)">
     <defs>
      <path id="DejaVuSans-57" d="M 213 4666 
L 850 4666 
L 1831 722 
L 2809 4666 
L 3519 4666 
L 4500 722 
L 5478 4666 
L 6119 4666 
L 4947 0 
L 4153 0 
L 3169 4050 
L 2175 0 
L 1381 0 
L 213 4666 
z
" transform="scale(0.015625)"/>
     </defs>
     <use xlink:href="#DejaVuSans-53"/>
     <use xlink:href="#DejaVuSans-57" x="63.476562"/>
     <use xlink:href="#DejaVuSans-45" x="162.353516"/>
    </g>
   </g>
   <g id="text_47">
    <!-- TUR -->
    <g transform="translate(577.840026 641.26401) scale(0.1 -0.1)">
     <use xlink:href="#DejaVuSans-54"/>
     <use xlink:href="#DejaVuSans-55" x="61.083984"/>
     <use xlink:href="#DejaVuSans-52" x="134.277344"/>
    </g>
   </g>
   <g id="text_48">
    <!-- USA -->
    <g transform="translate(157.885068 606.354146) scale(0.1 -0.1)">
     <use xlink:href="#DejaVuSans-55"/>
     <use xlink:href="#DejaVuSans-53" x="73.193359"/>
     <use xlink:href="#DejaVuSans-41" x="138.544922"/>
    </g>
   </g>
   <g id="text_49">
    <!-- Biplot PCA para 2000 - Países e Indicadores -->
    <g transform="translate(331.232953 19.197656) scale(0.15 -0.15)">
     <defs>
      <path id="DejaVuSans-6f" d="M 1959 3097 
Q 1497 3097 1228 2736 
Q 959 2375 959 1747 
Q 959 1119 1226 758 
Q 1494 397 1959 397 
Q 2419 397 2687 759 
Q 2956 1122 2956 1747 
Q 2956 2369 2687 2733 
Q 2419 3097 1959 3097 
z
M 1959 3584 
Q 2709 3584 3137 3096 
Q 3566 2609 3566 1747 
Q 3566 888 3137 398 
Q 2709 -91 1959 -91 
Q 1206 -91 779 398 
Q 353 888 353 1747 
Q 353 2609 779 3096 
Q 1206 3584 1959 3584 
z
" transform="scale(0.015625)"/>
      <path id="DejaVuSans-74" d="M 1172 4494 
L 1172 3500 
L 2356 3500 
L 2356 3053 
L 1172 3053 
L 1172 1153 
Q 1172 725 1289 603 
Q 1406 481 1766 481 
L 2356 481 
L 2356 0 
L 1766 0 
Q 1100 0 847 248 
Q 594 497 594 1153 
L 594 3053 
L 172 3053 
L 172 3500 
L 594 3500 
L 594 4494 
L 1172 4494 
z
" transform="scale(0.015625)"/>
      <path id="DejaVuSans-2d" d="M 313 2009 
L 1997 2009 
L 1997 1497 
L 313 1497 
L 313 2009 
z
" transform="scale(0.015625)"/>
      <path id="DejaVuSans-ed" d="M 1322 5119 
L 1944 5119 
L 926 3944 
L 447 3944 
L 1322 5119 
z
M 603 3500 
L 1178 3500 
L 1178 0 
L 603 0 
L 603 3500 
z
M 891 3584 
L 891 3584 
z
" transform="scale(0.015625)"/>
      <path id="DejaVuSans-73" d="M 2834 3397 
L 2834 2853 
Q 2591 2978 2328 3040 
Q 2066 3103 1784 3103 
Q 1356 3103 1142 2972 
Q 928 2841 928 2578 
Q 928 2378 1081 2264 
Q 1234 2150 1697 2047 
L 1894 2003 
Q 2506 1872 2764 1633 
Q 3022 1394 3022 966 
Q 3022 478 2636 193 
Q 2250 -91 1575 -91 
Q 1294 -91 989 -36 
Q 684 19 347 128 
L 347 722 
Q 666 556 975 473 
Q 1284 391 1588 391 
Q 1994 391 2212 530 
Q 2431 669 2431 922 
Q 2431 1156 2273 1281 
Q 2116 1406 1581 1522 
L 1381 1569 
Q 847 1681 609 1914 
Q 372 2147 372 2553 
Q 372 3047 722 3315 
Q 1072 3584 1716 3584 
Q 2034 3584 2315 3537 
Q 2597 3491 2834 3397 
z
" transform="scale(0.015625)"/>
     </defs>
     <use xlink:href="#DejaVuSans-42"/>
     <use xlink:href="#DejaVuSans-69" x="68.603516"/>
     <use xlink:href="#DejaVuSans-70" x="96.386719"/>
     <use xlink:href="#DejaVuSans-6c" x="159.863281"/>
     <use xlink:href="#DejaVuSans-6f" x="187.646484"/>
     <use xlink:href="#DejaVuSans-74" x="248.828125"/>
     <use xlink:href="#DejaVuSans-20" x="288.037109"/>
     <use xlink:href="#DejaVuSans-50" x="319.824219"/>
     <use xlink:href="#DejaVuSans-43" x="380.126953"/>
     <use xlink:href="#DejaVuSans-41" x="449.951172"/>
     <use xlink:href="#DejaVuSans-20" x="518.359375"/>
     <use xlink:href="#DejaVuSans-70" x="550.146484"/>
     <use xlink:href="#DejaVuSans-61" x="613.623047"/>
     <use xlink:href="#DejaVuSans-72" x="674.902344"/>
     <use xlink:href="#DejaVuSans-61" x="716.015625"/>
     <use xlink:href="#DejaVuSans-20" x="777.294922"/>
     <use xlink:href="#DejaVuSans-32" x="809.082031"/>
     <use xlink:href="#DejaVuSans-30" x="872.705078"/>
     <use xlink:href="#DejaVuSans-30" x="936.328125"/>
     <use xlink:href="#DejaVuSans-30" x="999.951172"/>
     <use xlink:href="#DejaVuSans-20" x="1063.574219"/>
     <use xlink:href="#DejaVuSans-2d" x="1095.361328"/>
     <use xlink:href="#DejaVuSans-20" x="1131.445312"/>
     <use xlink:href="#DejaVuSans-50" x="1163.232422"/>
     <use xlink:href="#DejaVuSans-61" x="1219.035156"/>
     <use xlink:href="#DejaVuSans-ed" x="1280.314453"/>
     <use xlink:href="#DejaVuSans-73" x="1308.097656"/>
     <use xlink:href="#DejaVuSans-65" x="1360.197266"/>
     <use xlink:href="#DejaVuSans-73" x="1421.720703"/>
     <use xlink:href="#DejaVuSans-20" x="1473.820312"/>
     <use xlink:href="#DejaVuSans-65" x="1505.607422"/>
     <use xlink:href="#DejaVuSans-20" x="1567.130859"/>
     <use xlink:href="#DejaVuSans-49" x="1598.917969"/>
     <use xlink:href="#DejaVuSans-6e" x="1628.410156"/>
     <use xlink:href="#DejaVuSans-64" x="1691.789062"/>
     <use xlink:href="#DejaVuSans-69" x="1755.265625"/>
     <use xlink:href="#DejaVuSans-63" x="1783.048828"/>
     <use xlink:href="#DejaVuSans-61" x="1838.029297"/>
     <use xlink:href="#DejaVuSans-64" x="1899.308594"/>
     <use xlink:href="#DejaVuSans-6f" x="1962.785156"/>
     <use xlink:href="#DejaVuSans-72" x="2023.966797"/>
     <use xlink:href="#DejaVuSans-65" x="2062.830078"/>
     <use xlink:href="#DejaVuSans-73" x="2124.353516"/>
    </g>
   </g>
   <g id="patch_11">
    <path d="M 468.099469 107.323308 
L 468.931239 121.439688 
L 465.622137 120.365032 
L 365.817058 636.506139 
L 365.733283 636.478932 
L 465.538363 120.337826 
L 462.229261 119.26317 
z
" clip-path="url(#p0412a58680)" style="fill: #ff0000; opacity: 0.8; stroke: #ff0000; stroke-linejoin: miter"/>
   </g>
   <g id="patch_12">
    <path d="M 126.031438 721.616767 
L 135.114034 713.74989 
L 136.015473 718.013776 
L 365.76376 636.438562 
L 365.786581 636.546509 
L 136.038294 718.121723 
L 136.939734 722.385608 
z
" clip-path="url(#p0412a58680)" style="fill: #ff0000; opacity: 0.8; stroke: #ff0000; stroke-linejoin: miter"/>
   </g>
   <g id="patch_13">
    <path d="M 448.358265 65.824929 
L 449.843342 79.850979 
L 446.490375 79.036064 
L 365.817613 636.502851 
L 365.732728 636.48222 
L 446.40549 79.015433 
L 443.052524 78.200519 
z
" clip-path="url(#p0412a58680)" style="fill: #ff0000; opacity: 0.8; stroke: #ff0000; stroke-linejoin: miter"/>
   </g>
   <g id="patch_14">
    <path d="M 648.371149 695.873162 
L 637.588028 698.142807 
L 638.134027 693.778775 
L 365.768259 636.547776 
L 365.782082 636.437294 
L 638.14785 693.668293 
L 638.693848 689.304261 
z
" clip-path="url(#p0412a58680)" style="fill: #ff0000; opacity: 0.8; stroke: #ff0000; stroke-linejoin: miter"/>
   </g>
   <g id="patch_15">
    <path d="M 634.477856 706.57255 
L 623.63618 708.311695 
L 624.309232 703.977568 
L 365.766651 636.547398 
L 365.78369 636.437673 
L 624.326271 703.867843 
L 624.999323 699.533717 
z
" clip-path="url(#p0412a58680)" style="fill: #ff0000; opacity: 0.8; stroke: #ff0000; stroke-linejoin: miter"/>
   </g>
   <g id="patch_16">
    <path d="M 149.270804 543.117563 
L 160.195219 543.110697 
L 159.118002 547.305527 
L 365.788806 636.439436 
L 365.761535 636.545634 
L 159.090731 547.411725 
L 158.013514 551.606554 
z
" clip-path="url(#p0412a58680)" style="fill: #ff0000; opacity: 0.8; stroke: #ff0000; stroke-linejoin: miter"/>
   </g>
   <g id="patch_17">
    <path d="M 238.703934 878.370384 
L 241.680869 864.748699 
L 244.500775 867.236759 
L 365.739475 636.461041 
L 365.810865 636.52403 
L 244.572165 867.299748 
L 247.392071 869.787808 
z
" clip-path="url(#p0412a58680)" style="fill: #ff0000; opacity: 0.8; stroke: #ff0000; stroke-linejoin: miter"/>
   </g>
   <g id="patch_18">
    <path d="M 128.805604 382.073746 
L 138.990333 387.194653 
L 136.813967 390.599131 
L 365.802719 636.449441 
L 365.747621 636.53563 
L 136.758869 390.68532 
L 134.582502 394.089799 
z
" clip-path="url(#p0412a58680)" style="fill: #ff0000; opacity: 0.8; stroke: #ff0000; stroke-linejoin: miter"/>
   </g>
   <g id="patch_19">
    <path d="M 136.112192 388.441158 
L 146.285276 393.600795 
L 144.101206 396.996978 
L 365.802817 636.449546 
L 365.747524 636.535525 
L 144.045913 397.082957 
L 141.861843 400.47914 
z
" clip-path="url(#p0412a58680)" style="fill: #ff0000; opacity: 0.8; stroke: #ff0000; stroke-linejoin: miter"/>
   </g>
   <g id="patch_20">
    <path d="M 104.574482 477.734773 
L 115.424478 479.384484 
L 113.975921 483.387155 
L 365.793507 636.441869 
L 365.756834 636.543202 
L 113.939249 483.488489 
L 112.490692 487.49116 
z
" clip-path="url(#p0412a58680)" style="fill: #ff0000; opacity: 0.8; stroke: #ff0000; stroke-linejoin: miter"/>
   </g>
   <g id="patch_21">
    <path d="M 130.694534 510.070928 
L 141.590965 511.083655 
L 140.283436 515.167056 
L 365.791721 636.440847 
L 365.758619 636.544224 
L 140.250334 515.270433 
L 138.942805 519.353834 
z
" clip-path="url(#p0412a58680)" style="fill: #ff0000; opacity: 0.8; stroke: #ff0000; stroke-linejoin: miter"/>
   </g>
   <g id="patch_22">
    <path d="M 622.81629 448.844421 
L 615.482135 459.337042 
L 613.807799 455.485134 
L 365.796365 636.541294 
L 365.753976 636.443777 
L 613.765411 455.387617 
L 612.091075 451.535708 
z
" clip-path="url(#p0412a58680)" style="fill: #ff0000; opacity: 0.8; stroke: #ff0000; stroke-linejoin: miter"/>
   </g>
   <g id="patch_23">
    <path d="M 493.069304 309.668773 
L 491.483292 323.676252 
L 488.437841 321.684104 
L 365.81372 636.517752 
L 365.73662 636.467318 
L 488.360741 321.63367 
L 485.31529 319.641523 
z
" clip-path="url(#p0412a58680)" style="fill: #ff0000; opacity: 0.8; stroke: #ff0000; stroke-linejoin: miter"/>
   </g>
   <g id="text_50">
    <!-- PIB_cr/% -->
    <g style="fill: #800000" transform="translate(485.751356 53.177649) scale(0.11 -0.11)">
     <defs>
      <path id="DejaVuSans-5f" d="M 3263 -1063 
L 3263 -1509 
L -63 -1509 
L -63 -1063 
L 3263 -1063 
z
" transform="scale(0.015625)"/>
      <path id="DejaVuSans-2f" d="M 1625 4666 
L 2156 4666 
L 531 -594 
L 0 -594 
L 1625 4666 
z
" transform="scale(0.015625)"/>
     </defs>
     <use xlink:href="#DejaVuSans-50"/>
     <use xlink:href="#DejaVuSans-49" x="60.302734"/>
     <use xlink:href="#DejaVuSans-42" x="89.794922"/>
     <use xlink:href="#DejaVuSans-5f" x="158.398438"/>
     <use xlink:href="#DejaVuSans-63" x="208.398438"/>
     <use xlink:href="#DejaVuSans-72" x="263.378906"/>
     <use xlink:href="#DejaVuSans-2f" x="304.492188"/>
     <use xlink:href="#DejaVuSans-25" x="338.183594"/>
    </g>
   </g>
   <g id="text_51">
    <!-- PIB_ca/ppp21 -->
    <g style="fill: #800000" transform="translate(41.357713 740.551418) scale(0.11 -0.11)">
     <use xlink:href="#DejaVuSans-50"/>
     <use xlink:href="#DejaVuSans-49" x="60.302734"/>
     <use xlink:href="#DejaVuSans-42" x="89.794922"/>
     <use xlink:href="#DejaVuSans-5f" x="158.398438"/>
     <use xlink:href="#DejaVuSans-63" x="208.398438"/>
     <use xlink:href="#DejaVuSans-61" x="263.378906"/>
     <use xlink:href="#DejaVuSans-2f" x="324.658203"/>
     <use xlink:href="#DejaVuSans-70" x="358.349609"/>
     <use xlink:href="#DejaVuSans-70" x="421.826172"/>
     <use xlink:href="#DejaVuSans-70" x="485.302734"/>
     <use xlink:href="#DejaVuSans-32" x="548.779297"/>
     <use xlink:href="#DejaVuSans-31" x="612.402344"/>
    </g>
   </g>
   <g id="text_52">
    <!-- PIB_ca/% -->
    <g style="fill: #800000" transform="translate(443.288728 34.700123) scale(0.11 -0.11)">
     <use xlink:href="#DejaVuSans-50"/>
     <use xlink:href="#DejaVuSans-49" x="60.302734"/>
     <use xlink:href="#DejaVuSans-42" x="89.794922"/>
     <use xlink:href="#DejaVuSans-5f" x="158.398438"/>
     <use xlink:href="#DejaVuSans-63" x="208.398438"/>
     <use xlink:href="#DejaVuSans-61" x="263.378906"/>
     <use xlink:href="#DejaVuSans-2f" x="324.658203"/>
     <use xlink:href="#DejaVuSans-25" x="358.349609"/>
    </g>
   </g>
   <g id="text_53">
    <!-- Po_So/%T -->
    <g style="fill: #800000" transform="translate(670.529559 696.802138) scale(0.11 -0.11)">
     <use xlink:href="#DejaVuSans-50"/>
     <use xlink:href="#DejaVuSans-6f" x="56.677734"/>
     <use xlink:href="#DejaVuSans-5f" x="117.859375"/>
     <use xlink:href="#DejaVuSans-53" x="167.859375"/>
     <use xlink:href="#DejaVuSans-6f" x="231.335938"/>
     <use xlink:href="#DejaVuSans-2f" x="292.517578"/>
     <use xlink:href="#DejaVuSans-25" x="326.208984"/>
     <use xlink:href="#DejaVuSans-54" x="421.228516"/>
    </g>
   </g>
   <g id="text_54">
    <!-- Po_$6.85/%T -->
    <g style="fill: #800000" transform="translate(600.59202 724.381727) scale(0.11 -0.11)">
     <defs>
      <path id="DejaVuSans-24" d="M 2163 -941 
L 1850 -941 
L 1847 0 
Q 1519 6 1191 76 
Q 863 147 531 288 
L 531 850 
Q 850 650 1176 548 
Q 1503 447 1850 444 
L 1850 1869 
Q 1159 1981 845 2250 
Q 531 2519 531 2988 
Q 531 3497 872 3790 
Q 1213 4084 1850 4128 
L 1850 4863 
L 2163 4863 
L 2163 4138 
Q 2453 4125 2725 4076 
Q 2997 4028 3256 3944 
L 3256 3397 
Q 2997 3528 2723 3600 
Q 2450 3672 2163 3684 
L 2163 2350 
Q 2872 2241 3206 1959 
Q 3541 1678 3541 1191 
Q 3541 663 3186 358 
Q 2831 53 2163 6 
L 2163 -941 
z
M 1850 2406 
L 1850 3688 
Q 1488 3647 1297 3481 
Q 1106 3316 1106 3041 
Q 1106 2772 1282 2622 
Q 1459 2472 1850 2406 
z
M 2163 1806 
L 2163 453 
Q 2559 506 2761 678 
Q 2963 850 2963 1131 
Q 2963 1406 2770 1568 
Q 2578 1731 2163 1806 
z
" transform="scale(0.015625)"/>
      <path id="DejaVuSans-38" d="M 2034 2216 
Q 1584 2216 1326 1975 
Q 1069 1734 1069 1313 
Q 1069 891 1326 650 
Q 1584 409 2034 409 
Q 2484 409 2743 651 
Q 3003 894 3003 1313 
Q 3003 1734 2745 1975 
Q 2488 2216 2034 2216 
z
M 1403 2484 
Q 997 2584 770 2862 
Q 544 3141 544 3541 
Q 544 4100 942 4425 
Q 1341 4750 2034 4750 
Q 2731 4750 3128 4425 
Q 3525 4100 3525 3541 
Q 3525 3141 3298 2862 
Q 3072 2584 2669 2484 
Q 3125 2378 3379 2068 
Q 3634 1759 3634 1313 
Q 3634 634 3220 271 
Q 2806 -91 2034 -91 
Q 1263 -91 848 271 
Q 434 634 434 1313 
Q 434 1759 690 2068 
Q 947 2378 1403 2484 
z
M 1172 3481 
Q 1172 3119 1398 2916 
Q 1625 2713 2034 2713 
Q 2441 2713 2670 2916 
Q 2900 3119 2900 3481 
Q 2900 3844 2670 4047 
Q 2441 4250 2034 4250 
Q 1625 4250 1398 4047 
Q 1172 3844 1172 3481 
z
" transform="scale(0.015625)"/>
     </defs>
     <use xlink:href="#DejaVuSans-50"/>
     <use xlink:href="#DejaVuSans-6f" x="56.677734"/>
     <use xlink:href="#DejaVuSans-5f" x="117.859375"/>
     <use xlink:href="#DejaVuSans-24" x="167.859375"/>
     <use xlink:href="#DejaVuSans-36" x="231.482422"/>
     <use xlink:href="#DejaVuSans-2e" x="295.105469"/>
     <use xlink:href="#DejaVuSans-38" x="326.892578"/>
     <use xlink:href="#DejaVuSans-35" x="390.515625"/>
     <use xlink:href="#DejaVuSans-2f" x="454.138672"/>
     <use xlink:href="#DejaVuSans-25" x="487.830078"/>
     <use xlink:href="#DejaVuSans-54" x="582.849609"/>
    </g>
   </g>
   <g id="text_55">
    <!-- Go_Ed/%PIB -->
    <g style="fill: #800000" transform="translate(126.575475 541.016523) scale(0.11 -0.11)">
     <use xlink:href="#DejaVuSans-47"/>
     <use xlink:href="#DejaVuSans-6f" x="77.490234"/>
     <use xlink:href="#DejaVuSans-5f" x="138.671875"/>
     <use xlink:href="#DejaVuSans-45" x="188.671875"/>
     <use xlink:href="#DejaVuSans-64" x="251.855469"/>
     <use xlink:href="#DejaVuSans-2f" x="315.332031"/>
     <use xlink:href="#DejaVuSans-25" x="349.023438"/>
     <use xlink:href="#DejaVuSans-50" x="444.042969"/>
     <use xlink:href="#DejaVuSans-49" x="504.345703"/>
     <use xlink:href="#DejaVuSans-42" x="533.837891"/>
    </g>
   </g>
   <g id="text_56">
    <!-- Ed_ob/Añ -->
    <g style="fill: #800000" transform="translate(225.187258 905.689755) scale(0.11 -0.11)">
     <defs>
      <path id="DejaVuSans-62" d="M 3116 1747 
Q 3116 2381 2855 2742 
Q 2594 3103 2138 3103 
Q 1681 3103 1420 2742 
Q 1159 2381 1159 1747 
Q 1159 1113 1420 752 
Q 1681 391 2138 391 
Q 2594 391 2855 752 
Q 3116 1113 3116 1747 
z
M 1159 2969 
Q 1341 3281 1617 3432 
Q 1894 3584 2278 3584 
Q 2916 3584 3314 3078 
Q 3713 2572 3713 1747 
Q 3713 922 3314 415 
Q 2916 -91 2278 -91 
Q 1894 -91 1617 61 
Q 1341 213 1159 525 
L 1159 0 
L 581 0 
L 581 4863 
L 1159 4863 
L 1159 2969 
z
" transform="scale(0.015625)"/>
      <path id="DejaVuSans-f1" d="M 3513 2113 
L 3513 0 
L 2938 0 
L 2938 2094 
Q 2938 2591 2744 2837 
Q 2550 3084 2163 3084 
Q 1697 3084 1428 2787 
Q 1159 2491 1159 1978 
L 1159 0 
L 581 0 
L 581 3500 
L 1159 3500 
L 1159 2956 
Q 1366 3272 1645 3428 
Q 1925 3584 2291 3584 
Q 2894 3584 3203 3211 
Q 3513 2838 3513 2113 
z
M 2060 4281 
L 1881 4453 
Q 1813 4516 1761 4545 
Q 1710 4575 1669 4575 
Q 1550 4575 1494 4461 
Q 1438 4347 1431 4091 
L 1041 4091 
Q 1047 4513 1206 4742 
Q 1366 4972 1650 4972 
Q 1769 4972 1869 4928 
Q 1969 4884 2085 4781 
L 2263 4609 
Q 2331 4547 2383 4517 
Q 2435 4488 2475 4488 
Q 2594 4488 2650 4602 
Q 2706 4716 2713 4972 
L 3103 4972 
Q 3097 4550 2937 4320 
Q 2778 4091 2494 4091 
Q 2375 4091 2275 4134 
Q 2175 4178 2060 4281 
z
" transform="scale(0.015625)"/>
     </defs>
     <use xlink:href="#DejaVuSans-45"/>
     <use xlink:href="#DejaVuSans-64" x="63.183594"/>
     <use xlink:href="#DejaVuSans-5f" x="126.660156"/>
     <use xlink:href="#DejaVuSans-6f" x="176.660156"/>
     <use xlink:href="#DejaVuSans-62" x="237.841797"/>
     <use xlink:href="#DejaVuSans-2f" x="301.318359"/>
     <use xlink:href="#DejaVuSans-41" x="335.009766"/>
     <use xlink:href="#DejaVuSans-f1" x="403.417969"/>
    </g>
   </g>
   <g id="text_57">
    <!-- Ma_Tr/%T -->
    <g style="fill: #800000" transform="translate(93.741046 348.258634) scale(0.11 -0.11)">
     <use xlink:href="#DejaVuSans-4d"/>
     <use xlink:href="#DejaVuSans-61" x="86.279297"/>
     <use xlink:href="#DejaVuSans-5f" x="147.558594"/>
     <use xlink:href="#DejaVuSans-54" x="197.558594"/>
     <use xlink:href="#DejaVuSans-72" x="243.892578"/>
     <use xlink:href="#DejaVuSans-2f" x="285.005859"/>
     <use xlink:href="#DejaVuSans-25" x="318.697266"/>
     <use xlink:href="#DejaVuSans-54" x="413.716797"/>
    </g>
   </g>
   <g id="text_58">
    <!-- Ma_Tr_Mu/%T -->
    <g style="fill: #800000" transform="translate(109.201108 370.90253) scale(0.11 -0.11)">
     <defs>
      <path id="DejaVuSans-75" d="M 544 1381 
L 544 3500 
L 1119 3500 
L 1119 1403 
Q 1119 906 1312 657 
Q 1506 409 1894 409 
Q 2359 409 2629 706 
Q 2900 1003 2900 1516 
L 2900 3500 
L 3475 3500 
L 3475 0 
L 2900 0 
L 2900 538 
Q 2691 219 2414 64 
Q 2138 -91 1772 -91 
Q 1169 -91 856 284 
Q 544 659 544 1381 
z
M 1991 3584 
L 1991 3584 
z
" transform="scale(0.015625)"/>
     </defs>
     <use xlink:href="#DejaVuSans-4d"/>
     <use xlink:href="#DejaVuSans-61" x="86.279297"/>
     <use xlink:href="#DejaVuSans-5f" x="147.558594"/>
     <use xlink:href="#DejaVuSans-54" x="197.558594"/>
     <use xlink:href="#DejaVuSans-72" x="243.892578"/>
     <use xlink:href="#DejaVuSans-5f" x="285.005859"/>
     <use xlink:href="#DejaVuSans-4d" x="335.005859"/>
     <use xlink:href="#DejaVuSans-75" x="421.285156"/>
     <use xlink:href="#DejaVuSans-2f" x="484.664062"/>
     <use xlink:href="#DejaVuSans-25" x="518.355469"/>
     <use xlink:href="#DejaVuSans-54" x="613.375"/>
    </g>
   </g>
   <g id="text_59">
    <!-- Inv_I&amp;D/Hab -->
    <g style="fill: #800000" transform="translate(63.579416 455.070679) scale(0.11 -0.11)">
     <defs>
      <path id="DejaVuSans-26" d="M 1556 2509 
Q 1272 2256 1139 2004 
Q 1006 1753 1006 1478 
Q 1006 1022 1337 719 
Q 1669 416 2169 416 
Q 2466 416 2725 514 
Q 2984 613 3213 813 
L 1556 2509 
z
M 1997 2859 
L 3584 1234 
Q 3769 1513 3872 1830 
Q 3975 2147 3994 2503 
L 4575 2503 
Q 4538 2091 4375 1687 
Q 4213 1284 3922 891 
L 4794 0 
L 4006 0 
L 3559 459 
Q 3234 181 2878 45 
Q 2522 -91 2113 -91 
Q 1359 -91 881 339 
Q 403 769 403 1441 
Q 403 1841 612 2192 
Q 822 2544 1241 2853 
Q 1091 3050 1012 3245 
Q 934 3441 934 3628 
Q 934 4134 1281 4442 
Q 1628 4750 2203 4750 
Q 2463 4750 2720 4694 
Q 2978 4638 3244 4525 
L 3244 3956 
Q 2972 4103 2725 4179 
Q 2478 4256 2266 4256 
Q 1938 4256 1733 4082 
Q 1528 3909 1528 3634 
Q 1528 3475 1620 3314 
Q 1713 3153 1997 2859 
z
" transform="scale(0.015625)"/>
     </defs>
     <use xlink:href="#DejaVuSans-49"/>
     <use xlink:href="#DejaVuSans-6e" x="29.492188"/>
     <use xlink:href="#DejaVuSans-76" x="92.871094"/>
     <use xlink:href="#DejaVuSans-5f" x="152.050781"/>
     <use xlink:href="#DejaVuSans-49" x="202.050781"/>
     <use xlink:href="#DejaVuSans-26" x="231.542969"/>
     <use xlink:href="#DejaVuSans-44" x="309.521484"/>
     <use xlink:href="#DejaVuSans-2f" x="386.523438"/>
     <use xlink:href="#DejaVuSans-48" x="420.214844"/>
     <use xlink:href="#DejaVuSans-61" x="495.410156"/>
     <use xlink:href="#DejaVuSans-62" x="556.689453"/>
    </g>
   </g>
   <g id="text_60">
    <!-- I&amp;D/%PIB -->
    <g style="fill: #800000" transform="translate(97.918895 492.394435) scale(0.11 -0.11)">
     <use xlink:href="#DejaVuSans-49"/>
     <use xlink:href="#DejaVuSans-26" x="29.492188"/>
     <use xlink:href="#DejaVuSans-44" x="107.470703"/>
     <use xlink:href="#DejaVuSans-2f" x="184.472656"/>
     <use xlink:href="#DejaVuSans-25" x="218.164062"/>
     <use xlink:href="#DejaVuSans-50" x="313.183594"/>
     <use xlink:href="#DejaVuSans-49" x="373.486328"/>
     <use xlink:href="#DejaVuSans-42" x="402.978516"/>
    </g>
   </g>
   <g id="text_61">
    <!-- In_CO2/ppp21 -->
    <g style="fill: #800000" transform="translate(583.107742 438.525338) scale(0.11 -0.11)">
     <use xlink:href="#DejaVuSans-49"/>
     <use xlink:href="#DejaVuSans-6e" x="29.492188"/>
     <use xlink:href="#DejaVuSans-5f" x="92.871094"/>
     <use xlink:href="#DejaVuSans-43" x="142.871094"/>
     <use xlink:href="#DejaVuSans-4f" x="212.695312"/>
     <use xlink:href="#DejaVuSans-32" x="291.40625"/>
     <use xlink:href="#DejaVuSans-2f" x="355.029297"/>
     <use xlink:href="#DejaVuSans-70" x="388.720703"/>
     <use xlink:href="#DejaVuSans-70" x="452.197266"/>
     <use xlink:href="#DejaVuSans-70" x="515.673828"/>
     <use xlink:href="#DejaVuSans-32" x="579.150391"/>
     <use xlink:href="#DejaVuSans-31" x="642.773438"/>
    </g>
   </g>
   <g id="text_62">
    <!-- In_En/ppp17 -->
    <g style="fill: #800000" transform="translate(446.846015 284.625367) scale(0.11 -0.11)">
     <use xlink:href="#DejaVuSans-49"/>
     <use xlink:href="#DejaVuSans-6e" x="29.492188"/>
     <use xlink:href="#DejaVuSans-5f" x="92.871094"/>
     <use xlink:href="#DejaVuSans-45" x="142.871094"/>
     <use xlink:href="#DejaVuSans-6e" x="206.054688"/>
     <use xlink:href="#DejaVuSans-2f" x="269.433594"/>
     <use xlink:href="#DejaVuSans-70" x="303.125"/>
     <use xlink:href="#DejaVuSans-70" x="366.601562"/>
     <use xlink:href="#DejaVuSans-70" x="430.078125"/>
     <use xlink:href="#DejaVuSans-31" x="493.554688"/>
     <use xlink:href="#DejaVuSans-37" x="557.177734"/>
    </g>
   </g>
   <g id="legend_1">
    <g id="patch_24">
     <path d="M 969.374378 106.988281 
L 1120.433753 106.988281 
Q 1122.433753 106.988281 1122.433753 104.988281 
L 1122.433753 32.197656 
Q 1122.433753 30.197656 1120.433753 30.197656 
L 969.374378 30.197656 
Q 967.374378 30.197656 967.374378 32.197656 
L 967.374378 104.988281 
Q 967.374378 106.988281 969.374378 106.988281 
z
" style="fill: #ffffff; opacity: 0.8; stroke: #cccccc; stroke-linejoin: miter"/>
    </g>
    <g id="text_63">
     <!-- Grupos de Países -->
     <g transform="translate(1002.009534 42.196094) scale(0.1 -0.1)">
      <use xlink:href="#DejaVuSans-47"/>
      <use xlink:href="#DejaVuSans-72" x="77.490234"/>
      <use xlink:href="#DejaVuSans-75" x="118.603516"/>
      <use xlink:href="#DejaVuSans-70" x="181.982422"/>
      <use xlink:href="#DejaVuSans-6f" x="245.458984"/>
      <use xlink:href="#DejaVuSans-73" x="306.640625"/>
      <use xlink:href="#DejaVuSans-20" x="358.740234"/>
      <use xlink:href="#DejaVuSans-64" x="390.527344"/>
      <use xlink:href="#DejaVuSans-65" x="454.003906"/>
      <use xlink:href="#DejaVuSans-20" x="515.527344"/>
      <use xlink:href="#DejaVuSans-50" x="547.314453"/>
      <use xlink:href="#DejaVuSans-61" x="603.117188"/>
      <use xlink:href="#DejaVuSans-ed" x="664.396484"/>
      <use xlink:href="#DejaVuSans-73" x="692.179688"/>
      <use xlink:href="#DejaVuSans-65" x="744.279297"/>
      <use xlink:href="#DejaVuSans-73" x="805.802734"/>
     </g>
    </g>
    <g id="patch_25">
     <path d="M 971.374378 56.874219 
L 991.374378 56.874219 
L 991.374378 49.874219 
L 971.374378 49.874219 
z
" style="fill: #ffa500; stroke: #ffa500; stroke-linejoin: miter"/>
    </g>
    <g id="text_64">
     <!-- Asiáticos -->
     <g transform="translate(999.374378 56.874219) scale(0.1 -0.1)">
      <defs>
       <path id="DejaVuSans-e1" d="M 2194 1759 
Q 1497 1759 1228 1600 
Q 959 1441 959 1056 
Q 959 750 1161 570 
Q 1363 391 1709 391 
Q 2188 391 2477 730 
Q 2766 1069 2766 1631 
L 2766 1759 
L 2194 1759 
z
M 3341 1997 
L 3341 0 
L 2766 0 
L 2766 531 
Q 2569 213 2275 61 
Q 1981 -91 1556 -91 
Q 1019 -91 701 211 
Q 384 513 384 1019 
Q 384 1609 779 1909 
Q 1175 2209 1959 2209 
L 2766 2209 
L 2766 2266 
Q 2766 2663 2505 2880 
Q 2244 3097 1772 3097 
Q 1472 3097 1187 3025 
Q 903 2953 641 2809 
L 641 3341 
Q 956 3463 1253 3523 
Q 1550 3584 1831 3584 
Q 2591 3584 2966 3190 
Q 3341 2797 3341 1997 
z
M 2290 5119 
L 2912 5119 
L 1894 3944 
L 1415 3944 
L 2290 5119 
z
" transform="scale(0.015625)"/>
      </defs>
      <use xlink:href="#DejaVuSans-41"/>
      <use xlink:href="#DejaVuSans-73" x="68.408203"/>
      <use xlink:href="#DejaVuSans-69" x="120.507812"/>
      <use xlink:href="#DejaVuSans-e1" x="148.291016"/>
      <use xlink:href="#DejaVuSans-74" x="209.570312"/>
      <use xlink:href="#DejaVuSans-69" x="248.779297"/>
      <use xlink:href="#DejaVuSans-63" x="276.5625"/>
      <use xlink:href="#DejaVuSans-6f" x="331.542969"/>
      <use xlink:href="#DejaVuSans-73" x="392.724609"/>
     </g>
    </g>
    <g id="patch_26">
     <path d="M 971.374378 71.552344 
L 991.374378 71.552344 
L 991.374378 64.552344 
L 971.374378 64.552344 
z
" style="fill: #800080; stroke: #800080; stroke-linejoin: miter"/>
    </g>
    <g id="text_65">
     <!-- Escandinavos -->
     <g transform="translate(999.374378 71.552344) scale(0.1 -0.1)">
      <use xlink:href="#DejaVuSans-45"/>
      <use xlink:href="#DejaVuSans-73" x="63.183594"/>
      <use xlink:href="#DejaVuSans-63" x="115.283203"/>
      <use xlink:href="#DejaVuSans-61" x="170.263672"/>
      <use xlink:href="#DejaVuSans-6e" x="231.542969"/>
      <use xlink:href="#DejaVuSans-64" x="294.921875"/>
      <use xlink:href="#DejaVuSans-69" x="358.398438"/>
      <use xlink:href="#DejaVuSans-6e" x="386.181641"/>
      <use xlink:href="#DejaVuSans-61" x="449.560547"/>
      <use xlink:href="#DejaVuSans-76" x="510.839844"/>
      <use xlink:href="#DejaVuSans-6f" x="570.019531"/>
      <use xlink:href="#DejaVuSans-73" x="631.201172"/>
     </g>
    </g>
    <g id="patch_27">
     <path d="M 971.374378 86.230469 
L 991.374378 86.230469 
L 991.374378 79.230469 
L 971.374378 79.230469 
z
" style="fill: #0000ff; stroke: #0000ff; stroke-linejoin: miter"/>
    </g>
    <g id="text_66">
     <!-- Neoliberales Avanzados -->
     <g transform="translate(999.374378 86.230469) scale(0.1 -0.1)">
      <use xlink:href="#DejaVuSans-4e"/>
      <use xlink:href="#DejaVuSans-65" x="74.804688"/>
      <use xlink:href="#DejaVuSans-6f" x="136.328125"/>
      <use xlink:href="#DejaVuSans-6c" x="197.509766"/>
      <use xlink:href="#DejaVuSans-69" x="225.292969"/>
      <use xlink:href="#DejaVuSans-62" x="253.076172"/>
      <use xlink:href="#DejaVuSans-65" x="316.552734"/>
      <use xlink:href="#DejaVuSans-72" x="378.076172"/>
      <use xlink:href="#DejaVuSans-61" x="419.189453"/>
      <use xlink:href="#DejaVuSans-6c" x="480.46875"/>
      <use xlink:href="#DejaVuSans-65" x="508.251953"/>
      <use xlink:href="#DejaVuSans-73" x="569.775391"/>
      <use xlink:href="#DejaVuSans-20" x="621.875"/>
      <use xlink:href="#DejaVuSans-41" x="653.662109"/>
      <use xlink:href="#DejaVuSans-76" x="716.195312"/>
      <use xlink:href="#DejaVuSans-61" x="775.375"/>
      <use xlink:href="#DejaVuSans-6e" x="836.654297"/>
      <use xlink:href="#DejaVuSans-7a" x="900.033203"/>
      <use xlink:href="#DejaVuSans-61" x="952.523438"/>
      <use xlink:href="#DejaVuSans-64" x="1013.802734"/>
      <use xlink:href="#DejaVuSans-6f" x="1077.279297"/>
      <use xlink:href="#DejaVuSans-73" x="1138.460938"/>
     </g>
    </g>
    <g id="patch_28">
     <path d="M 971.374378 100.908594 
L 991.374378 100.908594 
L 991.374378 93.908594 
L 971.374378 93.908594 
z
" style="fill: #008000; stroke: #008000; stroke-linejoin: miter"/>
    </g>
    <g id="text_67">
     <!-- Neoliberales tardíos -->
     <g transform="translate(999.374378 100.908594) scale(0.1 -0.1)">
      <use xlink:href="#DejaVuSans-4e"/>
      <use xlink:href="#DejaVuSans-65" x="74.804688"/>
      <use xlink:href="#DejaVuSans-6f" x="136.328125"/>
      <use xlink:href="#DejaVuSans-6c" x="197.509766"/>
      <use xlink:href="#DejaVuSans-69" x="225.292969"/>
      <use xlink:href="#DejaVuSans-62" x="253.076172"/>
      <use xlink:href="#DejaVuSans-65" x="316.552734"/>
      <use xlink:href="#DejaVuSans-72" x="378.076172"/>
      <use xlink:href="#DejaVuSans-61" x="419.189453"/>
      <use xlink:href="#DejaVuSans-6c" x="480.46875"/>
      <use xlink:href="#DejaVuSans-65" x="508.251953"/>
      <use xlink:href="#DejaVuSans-73" x="569.775391"/>
      <use xlink:href="#DejaVuSans-20" x="621.875"/>
      <use xlink:href="#DejaVuSans-74" x="653.662109"/>
      <use xlink:href="#DejaVuSans-61" x="692.871094"/>
      <use xlink:href="#DejaVuSans-72" x="754.150391"/>
      <use xlink:href="#DejaVuSans-64" x="793.513672"/>
      <use xlink:href="#DejaVuSans-ed" x="856.990234"/>
      <use xlink:href="#DejaVuSans-6f" x="884.773438"/>
      <use xlink:href="#DejaVuSans-73" x="945.955078"/>
     </g>
    </g>
   </g>
  </g>
 </g>
 <defs>
  <clipPath id="p0412a58680">
   <rect x="44.555938" y="25.197656" width="899.822" height="893.8"/>
  </clipPath>
 </defs>
</svg>
